<?xml version="1.0" encoding="utf-8"?>
<!-- Generator: Adobe Illustrator 19.2.1, SVG Export Plug-In . SVG Version: 6.00 Build 0)  -->
<svg version="1.1" id="Layer_1" xmlns="http://www.w3.org/2000/svg" xmlns:xlink="http://www.w3.org/1999/xlink" x="0px" y="0px"
	 viewBox="0 0 385 112" style="enable-background:new 0 0 385 112;" xml:space="preserve">
<style type="text/css">
	.st0{display:none;fill:#113F51;}
	.st1{fill:#113F51;}
</style>
<path class="st0" d="M-1.9,4.5c-0.3-5.3-0.1-6.4-4-7.4c-1-0.2-1.5-0.5-1.5-0.8c0-0.5,0.5-0.5,1.6-0.5c1.5,0,4.1,0.5,6.8,0.5
	c2.3,0,5.7-0.4,6.8-0.4c1,0,1.4,0.2,1.4,0.5S8.7-3,8-2.9C4.7-2.2,4.3-0.7,4,2.3C3.8,4.5,3.7,19.9,3.7,21.6c0,0.9,0.2,1.7,0.7,1.8
	c2.6,0.2,16.2,0.1,25.3,0.1c8.4,0,9.5-0.3,9.9-0.3c0.6-0.1,0.7-0.3,0.8-1.6c0.2-3-0.2-13.3-0.4-16.7c-0.3-5.7-0.3-7.4-4.3-7.9
	c-0.7-0.1-1.3-0.4-1.3-0.7c0-0.2,0.4-0.5,1.2-0.5c2,0,5.1,0.4,7.8,0.4c2.8,0,4.9-0.4,6.6-0.4c1,0,1.5,0.1,1.5,0.5
	c0,0.3-0.3,0.5-1.3,0.8c-4,0.8-4.2,2.5-4.2,6.7c-0.1,3.6,0,16.4,0.2,22.7c0.2,6.2,0.2,10,0.5,19.5c0.2,4.6,0.6,5.7,4.6,6.6
	c1,0.3,1.4,0.5,1.4,0.8c0,0.4-0.5,0.5-1.4,0.5c-1.3,0-6.2-0.3-8.2-0.3c-1.7,0-4.7,0.2-6.3,0.2c-1.1,0-1.7-0.2-1.7-0.6
	c0-0.3,0.4-0.5,1.5-0.7c3.1-0.6,4-1.2,4.1-5.1c0.1-4.7,0.3-17.1,0.1-18.9c-0.1-1.3-0.1-2.2-0.6-2.2c-2.9-0.2-16-0.4-24.9-0.4
	c-4.3,0-9.8-0.1-10.9-0.1c-0.3,0-0.6,0.7-0.6,2.3c0,11.3,0.5,19.6,0.9,21.4c0.4,1.9,1.8,2.6,3.6,3.1c1.3,0.3,1.6,0.6,1.6,0.9
	c0,0.4-0.6,0.5-1.6,0.5c-1.7,0-4.7-0.5-7.5-0.5c-2.3,0-5.3,0.4-6.7,0.4c-0.9,0-1.5-0.3-1.5-0.5c0-0.5,0.6-0.7,1.5-0.9
	c3.1-0.6,3.7-1.6,3.9-4.4c0.2-2.8,0.4-9.4,0.4-23.7C-1.7,19.8-1.8,7.9-1.9,4.5z M69.7,31.6c0,9.8-0.1,15.4,0.1,17.3
	c0.2,2.3,0.7,3.1,3.8,3.6c0.8,0.3,1.3,0.5,1.3,0.8c0,0.5-0.8,0.5-1.6,0.5c-1.1,0-4.5-0.3-6.6-0.3c-1.8,0-4.2,0.4-5.9,0.4
	c-0.7,0-1.5-0.2-1.5-0.5s0.5-0.6,1.6-0.8c2.6-0.4,3.6-1.6,3.6-5.3c0.1-3.9,0.1-23.5,0.1-26.6c0-3.5-0.1-4.9-0.2-5.7
	c-0.3-1.9-1.7-2.4-3.6-2.7c-0.6-0.1-1.3-0.5-1.3-0.7c0-0.5,0.8-0.5,1.4-0.5c2,0,3.7,0.3,6,0.3c1.8,0,5.2-0.3,6.5-0.3
	c0.5,0,1.4,0.2,1.4,0.5c0,0.4-0.5,0.6-1.6,0.8c-2.5,0.5-3.1,1.3-3.2,3.6C69.8,19.5,69.7,27.1,69.7,31.6z M90.5,49.2
	C85.7,45.1,83,39.3,83,33c0-7,2.9-13.3,9.6-18.2c3.3-2.4,8.2-4.7,16.5-4.7c3.1,0,5.9,0.5,8.9,1.3c1.6,0.5,4,1.4,4.7,1.7
	c0.6,0.3,0.9,0.7,0.9,1.6c0,0.4,0.5,3.8,0.7,4.7c0.3,1.3,0.1,2.1-0.3,2.1c-0.5,0-0.8-0.5-1.2-1.5c-0.8-2-2.1-3.7-3.7-5.2
	c-2.6-2.2-6.2-3.6-10.9-3.6c-5.5,0-10.1,2.4-13.1,5.4c-3.6,3.4-6.3,9.1-6.3,15.7c0,9,4.5,14.7,8.2,17.4c3.2,2.5,7.7,3.9,10.9,3.9
	c3.5,0,7.5-0.7,9.5-2.6c0.6-0.5,1-2.5,1-3.6c0-1.6,0.2-5.7,0-7.8c-0.2-2.4-1.3-3-4.4-3.5c-0.9-0.1-1.4-0.5-1.4-0.7
	c0-0.4,0.6-0.6,2.1-0.6c1.9,0,3.9,0.2,5.7,0.2c1.4,0,3.8-0.3,5.3-0.3c1,0,1.8,0,1.8,0.5c0,0.4-1.1,0.6-1.6,0.8
	c-2.1,0.8-2.6,1.3-2.6,4.6c0,3,0.5,7.8,0.5,8.7s0.1,1.6-0.5,1.9c-0.6,0.2-2.1,0.9-3.9,1.5c-3.1,1.1-7.3,2.3-11.2,2.3
	C101.1,55.1,94.9,53,90.5,49.2z M179,11.1c1,0,1.5,0.2,1.5,0.5c0,0.4-0.7,0.7-1.6,0.9c-2.7,0.7-3.4,2.3-3.6,4
	c-0.3,2.9-0.5,17.2-0.5,23.5c0,6.2-0.2,9.1,0,12.6c0.1,1.4-0.1,2.1-0.6,2.1c-0.4,0-1.2-0.8-2.4-2.3s-20.2-24.3-29.6-35.2
	c-0.2-0.2-0.6-0.3-0.6,0c0,2.4,0,25,0,27.7c0,5.7,0.6,6.9,4.5,7.7c1,0.2,1.6,0.5,1.6,0.8c0,0.4-0.2,0.5-1.6,0.5
	c-1.2,0-3.6-0.4-5.8-0.4c-2.1,0-4.3,0.4-4.9,0.4c-0.6,0-1.7,0-1.7-0.6c0-0.4,0.9-0.6,1.6-0.7c3.1-0.5,3.7-1.8,4.1-6.2
	c0.2-3.1,0.6-23.7,0.6-27.9c0-3.6-0.4-4.4-1.1-5c-1-0.8-2.1-1-3.5-1.3c-1.1-0.2-1.5-0.5-1.5-0.7c0-0.4,0.5-0.5,1.5-0.5
	c1.7,0,4.6,0.4,7.9,0.4c0.4,0,1,0.7,1.6,1.6c4.4,5.7,21.4,25.2,27.7,32.2c0.3,0.3,0.5,0,0.5-0.3c0-2.5,0-21.4-0.1-27.2
	c-0.1-3.9-1.2-4.6-4.7-5.2c-0.8-0.1-1.5-0.5-1.5-0.8c0-0.5,0.8-0.5,1.6-0.5c1.3,0,3.8,0.3,5.5,0.3C175.8,11.4,177.3,11.1,179,11.1z
	 M196.8,31.6c0,9.8-0.1,15.4,0.1,17.3c0.2,2.3,0.7,3.1,3.8,3.6c0.8,0.3,1.3,0.5,1.3,0.8c0,0.5-0.8,0.5-1.6,0.5
	c-1.1,0-4.5-0.3-6.6-0.3c-1.8,0-4.2,0.4-5.9,0.4c-0.7,0-1.5-0.2-1.5-0.5s0.5-0.6,1.5-0.8c2.6-0.4,3.6-1.6,3.6-5.3
	c0.1-3.9,0.1-23.5,0.1-26.6c0-3.5-0.1-4.9-0.2-5.7c-0.3-1.9-1.7-2.4-3.6-2.7c-0.6-0.1-1.3-0.5-1.3-0.7c0-0.5,0.8-0.5,1.4-0.5
	c2,0,3.7,0.3,6,0.3c1.8,0,5.2-0.3,6.5-0.3c0.5,0,1.4,0.2,1.4,0.5c0,0.4-0.5,0.6-1.5,0.8c-2.5,0.5-3.1,1.3-3.2,3.6
	C196.9,19.5,196.8,27.1,196.8,31.6z M217.6,49.2c-4.8-4.1-7.5-9.9-7.5-16.2c0-7,2.9-13.3,9.6-18.2c3.3-2.4,8.2-4.7,16.5-4.7
	c3.1,0,5.9,0.5,8.9,1.3c1.6,0.5,4,1.4,4.7,1.7c0.6,0.3,0.9,0.7,0.9,1.6c0,0.4,0.5,3.8,0.7,4.7c0.3,1.3,0.1,2.1-0.3,2.1
	c-0.5,0-0.8-0.5-1.2-1.5c-0.8-2-2.1-3.7-3.7-5.2c-2.6-2.2-6.2-3.6-10.9-3.6c-5.5,0-10.1,2.4-13.1,5.4c-3.6,3.4-6.3,9.1-6.3,15.7
	c0,9,4.5,14.7,8.2,17.4c3.2,2.5,7.7,3.9,10.9,3.9c3.5,0,7.5-0.7,9.5-2.6c0.6-0.5,1-2.5,1-3.6c0-1.6,0.2-5.7,0-7.8
	c-0.2-2.4-1.3-3-4.4-3.5c-0.9-0.1-1.4-0.5-1.4-0.7c0-0.4,0.6-0.6,2.1-0.6c1.9,0,3.9,0.2,5.7,0.2c1.4,0,3.8-0.3,5.3-0.3
	c1,0,1.8,0,1.8,0.5c0,0.4-1.1,0.6-1.5,0.8c-2.1,0.8-2.6,1.3-2.6,4.6c0,3,0.5,7.8,0.5,8.7s0.1,1.6-0.5,1.9c-0.6,0.2-2.1,0.9-3.9,1.5
	c-3.1,1.1-7.3,2.3-11.2,2.3C228.2,55.1,222,53,217.6,49.2z M266.9,17.4c0-2.9-0.5-4.4-3.5-4.9c-0.9-0.2-1.6-0.5-1.6-0.8
	c0-0.4,0.9-0.5,1.6-0.5c1.2,0,3.6,0.3,5.8,0.3c1.8,0,5.4-0.3,6.3-0.3c0.8,0,1.5,0.1,1.5,0.5c0,0.5-0.9,0.8-1.5,0.9
	c-2.4,0.5-3.1,1.4-3.2,3.6c0,1.5-0.2,12.8-0.1,13.6c0.1,0.6,0.2,1.3,0.6,1.3c1.8,0,12.2,0,19.1,0c6.2,0,6.8,0,7.3-0.1
	s0.6-0.4,0.7-0.8c0.2-1,0.1-9.8,0-12.1c-0.2-3.9-0.8-4.9-3.4-5.3c-0.8-0.2-1.7-0.5-1.7-0.8c0-0.5,0.7-0.6,1.7-0.6
	c3.1,0,3.4,0.3,6.3,0.3c2.3,0,3.8-0.3,5.6-0.3c1.3,0,1.8,0.2,1.8,0.5s-0.5,0.6-1.5,0.7c-3.2,0.5-3.6,1.9-3.6,4.7
	c0,1.7-0.1,12,0,16.7c0.1,4.6,0.2,11.3,0.2,13.4c0,3.8,0.4,4.7,4,5.5c0.9,0.2,1.5,0.4,1.5,0.8c0,0.4-0.6,0.5-1.6,0.5
	c-1.2,0-5.2-0.3-6.7-0.3c-1.9,0-4.8,0.3-5.7,0.3c-1.3,0-1.8-0.2-1.8-0.5c0-0.5,0.7-0.6,1.4-0.8c2.7-0.5,3.3-0.8,3.6-3.6
	c0.1-1.2,0.1-6.7,0.1-14.1c0-0.8-0.5-1.6-0.7-1.6c-1.3-0.2-5.5-0.3-14.9-0.3c-4.7,0-10.8,0-11.8,0c-0.4,0-0.6,0.5-0.6,1.4
	c0,14.3,0.2,15.1,0.4,15.9c0.3,1.4,1.1,1.7,3.2,2.3c1,0.3,1.6,0.5,1.6,0.9c0,0.5-1.2,0.5-1.6,0.5c-1.4,0-4.3-0.3-6.5-0.3
	c-1.9,0-4.5,0.3-5.6,0.3c-0.7,0-1.8-0.1-1.8-0.6c0-0.3,0.9-0.6,1.6-0.7c3.1-0.6,3.2-1.5,3.4-3.4c0.2-1.9,0.3-6.4,0.3-17V17.4H266.9z
	 M348.4,11.4c3.3,0,4.6-0.2,5.7-0.6c0.5-0.3,0.9-0.5,1.1-0.4c0.2,0.2,0.2,0.5,0.1,0.8c-0.3,0.5-0.5,3.6-0.5,6.7c0,1-0.2,1.7-0.5,1.7
	s-0.5-0.6-0.6-1.1c-0.2-0.9-0.9-3.5-1.4-4.1c-0.5-0.7-0.7-1.1-3-1.1c-1.6,0-9.2,0-10.7,0c-0.4,0-0.5,0.8-0.5,1.2l-0.2,24
	c0,4,0,8.8,0.3,10.9c0.3,2,1.3,2.7,3.6,3.2c1,0.2,1.6,0.5,1.6,0.9s-1.1,0.5-1.7,0.5c-2.2,0-3.7-0.4-6.5-0.4c-3.7,0-5.4,0.4-6.5,0.4
	c-1.3,0-1.7-0.3-1.7-0.5c0-0.4,0.6-0.6,1.6-0.8c3.4-0.5,3.8-1.3,3.9-4.7c0.3-6.8,0.5-32.7,0.5-33.5c0-0.4-0.1-1.1-0.5-1.2
	c-0.6,0-2.6,0-5.7,0c-3,0-5.2,0.1-6.1,0.2c-1.4,0.2-2.5,1.1-3.2,4.7c-0.2,0.8-0.5,1.3-0.7,1.3c-0.4,0-0.5-0.5-0.5-1.4
	c0-1.5,0.7-4.6,0.7-6.9c0-0.5,0.1-0.8,0.3-1c0.3-0.2,0.5,0,0.8,0.4c0.3,0.3,1.3,0.5,2.3,0.5c1,0.1,8.4,0.3,15.9,0.3L348.4,11.4
	L348.4,11.4z M367.6-2.2c0,5.8-6.5,8.4-7.8,8.4c-0.5,0-0.8-0.2-0.8-0.5c0-0.1,0.4-0.5,0.9-0.7c2.9-1.5,4.7-3.6,4.7-5.9
	c0-1.7-1.1-2.8-3.6-3.4c-0.6-0.2-1.7-0.6-1.7-1.7c0-1.2,1.1-2.3,2.6-2.3C365.5-8.3,367.6-5.1,367.6-2.2z M373.1,19.3
	c0,3.6,2.3,6.1,4.6,7.8c2.6,1.7,5,3.3,7.7,4.8c2.7,1.8,7.2,5,7.2,10.7c0,7.8-7.1,12.5-14.4,12.5c-3.3,0-7.3-0.8-9.7-2
	c-0.9-0.3-1.1-1.5-1.4-2.6c-0.1-1.2-0.4-2.6-0.5-4.9c-0.1-0.8,0-1.6,0.4-1.6s0.8,0.6,1.2,1.7c0.7,2.5,1.8,4.4,3.5,5.7
	c2.2,1.7,5.1,2.3,6.8,2.3c5.7,0,8.9-3.6,8.9-8.4c0-4.9-2.7-7.4-8.8-11c-5.2-3.1-9.9-6.8-9.9-12.9c0-3.3,1.6-6.7,4.4-8.7
	c2.6-1.9,6.1-2.7,9.2-2.7c3.6,0,6.6,1.1,7.5,1.5c0.5,0.2,0.8,0.5,0.9,0.9c0,1.9,0.4,4.1,0.5,5.1c0.2,1,0.1,1.6-0.3,1.6
	s-0.6-0.5-0.9-1.4c-0.7-2-1.6-3.5-3-4.5c-1.6-1.4-3.8-2-5.9-2C377.5,11.3,373.1,13.2,373.1,19.3z M108.4,80.8c0.2,0.1,0.4,0.2,0.6,0
	c0.2-0.1,0.3-0.3,0.5-0.5c0.3-0.3,0.7-0.2,0.3,0.8c-1.1,3.1-6.6,21.5-7.5,24.6c-0.2,0.6,0.1,0.9,0.3,0.9c0.9,0,2.3-1.2,3.2-2.3
	c0.1-0.2,0.3-0.2,0.3,0s-0.2,0.5-0.4,0.8c-0.9,1.4-3.2,3.7-5,3.7c-0.5,0-0.9-0.9-0.9-1.3c0-0.3,0.1-0.9,0.4-2
	c0.9-3.9,5.7-19.1,6.6-22.9c0.2-0.5,0.3-0.9,0-1.4c-0.4-0.5-1.1-0.8-1.7-0.8c-2.8,0-5.1,4.1-7.4,12.8c0,0.1,0,0.3,0.1,0.3l3.1-0.1
	c0.2,0,0.5,0.1,0.5,0.2c0,0.2-0.5,0.5-0.9,0.5c-0.7,0.1-1.9,0.2-3,0.2c-0.2,0-0.2,0.2-0.3,0.3c-0.8,3-3.5,13.8-4.6,17.8
	c-1.1,3.6-4,7.8-8,7.8c-1.1,0-2.5-1-2.5-1.7c0-0.3,0.3-1.1,0.8-1.4c0.2-0.1,0.7-0.1,0.9,0.2c0.9,0.9,1.8,1.6,2.7,1.6
	c1.6,0,2.3-2,3.2-5.1c1.4-5,4.1-16.2,4.8-19.1c0-0.2,0-0.4-0.1-0.4h-2.2c-0.2,0-0.5-0.1-0.5-0.2c0-0.2,0.6-0.5,0.8-0.5
	c0.6,0,1.8-0.1,2.2-0.2c0.1,0,0.2-0.2,0.3-0.3c1.7-6.1,3.6-9.1,5.2-10.7c1.7-1.8,3.4-2.8,5.8-2.8C106.9,80.1,107.8,80.5,108.4,80.8z
	 M119.9,98c0,4.2-2.9,8.3-4.7,9.6c-1.6,1.2-2.8,1.5-3.9,1.5c-1.4,0-3-1.3-3-4.5c0-2.2,1-5.7,2.9-8c1.9-2.4,3.9-3.4,5.6-3.4
	C119.2,93.1,119.9,96,119.9,98z M113,97.2c-1.6,2.5-2.8,6-2.8,8.8c0,1.5,0.5,2.3,1.3,2.3c0.7,0,1.6-0.6,2.6-1.9
	c1.9-2.5,3.8-7.4,3.8-10.2c0-1,0-2.6-1.1-2.6C115.8,93.7,114.6,94.8,113,97.2z M127.8,95c0,0.9-1.3,4-1.5,4.9
	c-0.1,0.5,0.1,0.6,0.3,0.2c0.9-1.5,1.9-3.1,3-4.4c1.1-1.5,2.5-2.5,3.6-2.5c0.9,0,1.3,0.8,1.3,1.5c0,1.5-1.3,2.4-1.8,2.4
	c-0.3,0-0.5-0.1-0.5-0.5c0-1.1-0.1-1.8-0.7-1.8c-0.7,0-1.9,1.4-3.9,5.4c-1.2,2.4-2.7,5.5-4,8.2c-0.2,0.6-0.6,0.8-0.7,0.8
	c-0.3,0-0.8-0.1-1-0.5c-0.1-0.1-0.1-0.3,0-0.6c0.1-0.6,2.1-6.3,3.9-11.6c0.2-0.7,0.1-1-0.2-1c-0.9,0-2.1,1.4-2.7,2.1
	c-0.2,0.2-0.4,0-0.4-0.1c0-0.9,1.7-3.8,4.1-3.8C127.4,93.5,127.8,94,127.8,95z M141.7,94.1c0,0.3-0.2,1.4-0.5,2.1
	c-0.9,2.3-3.3,8.2-4.2,10.2c-0.3,0.7-0.1,0.8,0.1,0.8c0.6,0,2.3-1.6,3-2.3c0.7-0.7,0.5,0,0.2,0.5c-1.8,2.4-3.8,3.6-5.1,3.6
	c-0.3,0-0.8-0.6-0.8-1.1s0.3-1.5,1-3.2c0.7-1.6,2.3-5.8,3.7-8.8c0.2-0.5,0.1-0.7-0.1-0.7c-0.6,0-1.6,0.6-2.7,1.8
	c-0.7,0.7-0.7,0.1-0.3-0.4c1.8-2.3,3.9-3.4,5.1-3.4C141.5,93.1,141.7,93.7,141.7,94.1z M143.1,87.8c0,1-0.9,1.5-1.4,1.5
	c-0.7,0-1.1-0.6-1.1-1.3c0-0.8,0.7-1.6,1.4-1.6C142.9,86.5,143.1,87.5,143.1,87.8z M152.2,94c0.2,0.2,0.3,0.5,0.3,0.7
	c0,0.5-0.8,1.2-1.1,1.2c-0.1,0-0.3,0-0.6-0.3c-0.5-0.4-1.1-1-1.8-1c-0.9,0-1.7,0.7-1.7,2c0,0.9,0.4,2.1,1.6,3.9
	c0.8,1.4,1.2,2.7,1.2,3.7c0,1.2-0.9,2.5-2.4,3.6c-1.3,1-2.7,1.3-3.6,1.3c-1.3,0-2.2-1-2.2-2.1c0-0.4,0.2-1.2,0.5-1.5
	c0.2-0.1,0.3-0.2,0.5,0c0.7,1.2,1.7,2.3,3.1,2.3c1.2,0,2.3-0.8,2.2-2.3c0-0.8-0.3-1.8-1.2-3.5c-1.1-1.9-1.4-2.9-1.4-3.6
	c0-1,0.6-2.5,2-3.7c1.1-0.9,2.2-1.5,3.1-1.5C151.2,93.1,151.9,93.5,152.2,94z M159.7,94.7c-0.2,0-0.3,0.3-0.4,0.6
	c-0.5,1.4-2.4,6.7-3.5,10.3c-0.1,0.3,0,0.7,0.2,0.7c0.5,0,1.7-0.7,3.2-2.3c0.7-0.7,0.5,0,0.2,0.5c-1.6,2.3-4.4,4.6-5.7,4.6
	c-0.3,0-0.8-0.4-0.8-1c0-0.5,0.2-1.3,0.5-1.9c0.5-1.4,2.4-7.2,3.7-10.8c0-0.2,0.1-0.5-0.1-0.5c-0.6,0-1.2,0-1.6,0
	c-0.3,0-0.3-0.1-0.3-0.2c0-0.2,0.4-0.5,0.5-0.5c0.2,0,0.8-0.1,1.8-0.2c0.1,0,0.2-0.2,0.3-0.3c0.4-0.8,1.1-2.3,1.5-3
	c0.3-0.4,1.1-0.8,1.7-0.8c0.2,0,0.2,0.3,0.1,0.7c-0.3,1.1-0.7,2.3-0.9,3c0,0.1,0,0.2,0,0.2c0.8,0,1.9,0,3.1,0c0.1,0,0.3,0.1,0.3,0.2
	s-0.2,0.5-0.9,0.6C161.6,94.6,160,94.7,159.7,94.7z M170.9,94c0.2,0.2,0.3,0.5,0.3,0.7c0,0.5-0.8,1.2-1.1,1.2c-0.1,0-0.3,0-0.6-0.3
	c-0.5-0.4-1.1-1-1.8-1c-0.9,0-1.7,0.7-1.7,2c0,0.9,0.4,2.1,1.6,3.9c0.8,1.4,1.2,2.7,1.2,3.7c0,1.2-0.9,2.5-2.4,3.6
	c-1.3,1-2.7,1.3-3.6,1.3c-1.3,0-2.2-1-2.2-2.1c0-0.4,0.2-1.2,0.5-1.5c0.2-0.1,0.3-0.2,0.5,0c0.7,1.2,1.7,2.3,3.1,2.3
	c1.2,0,2.3-0.8,2.2-2.3c0-0.8-0.3-1.8-1.2-3.5c-1.1-1.9-1.4-2.9-1.4-3.6c0-1,0.6-2.5,2-3.7c1.1-0.9,2.2-1.5,3.1-1.5
	C169.9,93.1,170.6,93.5,170.9,94z M186.5,94c0.2,0.2,0.3,0.5,0.3,0.7c0,0.5-0.8,1.2-1.1,1.2c-0.1,0-0.3,0-0.6-0.3
	c-0.5-0.4-1.1-1-1.8-1c-0.9,0-1.7,0.7-1.7,2c0,0.9,0.4,2.1,1.6,3.9c0.8,1.4,1.2,2.7,1.2,3.7c0,1.2-0.9,2.5-2.4,3.6
	c-1.3,1-2.7,1.3-3.6,1.3c-1.3,0-2.2-1-2.2-2.1c0-0.4,0.2-1.2,0.5-1.5c0.2-0.1,0.3-0.2,0.5,0c0.7,1.2,1.7,2.3,3.1,2.3
	c1.2,0,2.3-0.8,2.2-2.3c0-0.8-0.3-1.8-1.2-3.5c-1.1-1.9-1.4-2.9-1.4-3.6c0-1,0.6-2.5,2-3.7c1.1-0.9,2.2-1.5,3.1-1.5
	C185.5,93.1,186.2,93.5,186.5,94z M194.7,94.1c0,0.3-0.2,1.4-0.5,2.1c-0.9,2.3-3.3,8.2-4.2,10.2c-0.3,0.7-0.1,0.8,0.1,0.8
	c0.6,0,2.3-1.6,3-2.3c0.7-0.7,0.5,0,0.2,0.5c-1.8,2.4-3.8,3.6-5.1,3.6c-0.3,0-0.8-0.6-0.8-1.1s0.3-1.5,1-3.2
	c0.7-1.6,2.3-5.8,3.7-8.8c0.2-0.5,0.1-0.7-0.1-0.7c-0.6,0-1.6,0.6-2.7,1.8c-0.7,0.7-0.7,0.1-0.3-0.4c1.8-2.3,3.9-3.4,5.1-3.4
	C194.5,93.1,194.6,93.7,194.7,94.1z M196.1,87.8c0,1-0.9,1.5-1.4,1.5c-0.7,0-1.1-0.6-1.1-1.3c0-0.8,0.7-1.6,1.4-1.6
	C195.9,86.5,196.1,87.5,196.1,87.8z M202.8,95c-0.1,0.5-0.4,1.6-1.7,4.4c-0.2,0.4,0,0.5,0.3,0.1c1.8-2.3,5.2-6.3,8.3-6.3
	c0.9,0,1.4,0.8,1.4,1.5c0,0.5-0.2,1.3-0.7,2.5c-1,2.6-2.9,7-3.5,8.4c-0.1,0.5-0.1,0.5,0.2,0.5c0.5,0,2.2-1.3,3.4-2.6
	c0.4-0.4,0.5,0.1,0,0.7c-1.6,2.5-4.8,4.8-6.4,4.8c-0.6,0-0.7-0.8-0.5-1.2c0.2-0.5,4.5-9.9,5.1-11.9c0.2-0.8,0.1-1.4-0.6-1.4
	c-1,0-2.6,0.9-5.1,4.2c-2,2.8-3.7,6.3-5.6,9.6c-0.2,0.3-0.7,0.5-1.4,0.5c-0.2,0-0.5-0.2-0.5-0.5s0.2-1,0.5-1.5
	c1.2-2.9,3.8-8.9,4.6-10.6c0.3-0.6,0.2-0.9-0.4-0.9c-0.7,0-1.6,0.5-2.4,1.7c-0.2,0.3-0.5,0.2-0.3-0.3c0.3-0.9,1.5-3.4,4-3.4
	C202.7,93.2,203,94.5,202.8,95z M223.8,94c0.2,0.2,0.4,0.5,0.4,1c0,0.6-0.8,1.1-1.1,1.1s-0.6-0.2-1-0.8c-0.6-0.9-0.9-1.2-1.5-1.2
	c-0.9,0-1.9,1.2-2.9,3.1c-1.1,2-2.2,5.5-2.2,8.2c0,1.3,0.6,2.1,1.4,2.1c1.1,0,2.5-0.9,3.9-2.5c0.3-0.4,0.4-0.5,0.5-0.5
	c0.2,0-0.1,0.7-0.3,1.1c-0.9,1.8-3,3.5-5,3.5c-1.2,0-2.9-1.1-2.9-4.2c0-0.7,0.2-2.8,1.2-5.2c0.9-2.1,2.5-4.4,5.1-5.7
	c1-0.5,1.8-0.7,2.6-0.7C222.6,93.2,223.3,93.5,223.8,94z M235.6,95.2c0,0.9-0.7,2.1-2.1,3.2c-1.6,1.2-3.9,2-5.7,2.1
	c-0.2,0-0.3,0.2-0.4,0.4c-0.4,1-0.8,3-0.8,4.3c0,0.7,0.1,2,1.7,2c1.1,0,2.5-0.9,3.5-2.3c0.2-0.2,0.3-0.3,0.3-0.1
	c0,0.1,0,0.5-0.3,1.1c-1,1.7-2.7,3.1-4.8,3.1c-1.4,0-2.7-1.6-2.7-3.9c0-2.8,1.5-6.1,2.7-7.8c1.7-2.3,4.2-4.1,6.2-4.1
	C235,93.1,235.6,94.2,235.6,95.2z M227.9,99.7c0,0.1,0,0.2,0.2,0.1c2.4-0.4,5.8-3.3,5.8-5c0-0.7-0.3-1.1-0.8-1.1
	C231.3,93.7,229.1,96.2,227.9,99.7z M251,93.3c0.9,0,0.7,0.5,0,0.6c-1.3,0.2-1.6,0.4-2.3,2.3c-0.6,1.6-2.9,8.5-3.2,9.6
	c-0.5,1.6-0.4,2.1,1.1,2.3c1,0.2,0.6,0.6-0.1,0.6s-2.1-0.1-2.6-0.1c-1.3,0-2.4,0.2-3.5,0.2c-0.9,0-0.9-0.4,0-0.6
	c1.6-0.2,1.7-0.3,2.5-2.3c0.6-1.6,2.6-7.3,3.2-9.1c0.7-2.2,0.6-2.4-0.9-2.5c-1.1-0.1-0.8-0.6,0-0.6C248.3,93.5,249.5,93.3,251,93.3z
	 M262.9,97.3c0,3.2-1.6,7.5-4.6,11c-2.4,2.8-5.3,5.1-8,6.5c-1.4,0.7-2.7,0.9-3,0.9c-0.2,0-0.4,0-0.4-0.2c0-0.1,0.3-0.2,0.5-0.3
	c3.5-1.8,6.8-5,9.4-8.3c0.1-0.2,0.1-0.2,0-0.2c-0.6,0.1-1.8,0.4-2.1,0.4c-1.8,0-3-1.7-3-3.9c0-3.1,1.9-6.5,3.7-8.2
	c1.4-1.3,2.9-2.1,4.2-2.1C262,93,262.9,95.5,262.9,97.3z M256,97.2c-1.1,2-1.9,4.8-1.9,6.5c0,2,0.9,2.7,1.8,2.7c0.8,0,1.5-0.3,1.9-1
	c0.9-1.4,3-5.8,3-9.3c0-1-0.1-2.7-1.3-2.7C258.5,93.5,257.4,94.5,256,97.2z M278.7,93.6c-1,3-2.4,6.8-3.9,11.6c0,0.1,0,0.3,0.2,0.3
	c1.6-0.2,3.7-0.3,4.4-0.4c0.2,0,0.2,0.1,0.2,0.2c0,0.4-0.5,0.9-1,1c-0.3,0.1-3.2,0.4-4.1,0.5c-0.3,0-0.3,0.2-0.4,0.3
	c-0.5,1.2-1.4,4.3-2.4,7.1c-0.1,0.2-0.7,0.6-1,0.7c-0.4,0.2-1,0.3-1.1,0.3c-0.2,0-0.3-0.3-0.3-0.5c0.3-1.1,1.4-4.3,2.5-7.5
	c0-0.1,0-0.2-0.1-0.2c-2.3,0.2-5.6,0.5-8,0.7c-0.4,0-0.5-0.1-0.5-0.2s0.1-0.3,0.3-0.5c1-1.1,2.2-2,3.3-3.1
	c3.4-3.3,7.8-7.4,11.2-10.7c0.3-0.2,0.6-0.5,0.8-0.5C278.7,93,278.7,93.2,278.7,93.6z M272.3,105.5c1.6-4,2.7-7.5,3.2-8.7
	c0.1-0.3,0-0.2-0.2-0.1c-2.1,1.8-7.3,7-9.6,9.4c-0.1,0.1-0.1,0.2,0.1,0.2c1.4-0.1,4.8-0.3,6.3-0.5
	C272.2,105.7,272.3,105.5,272.3,105.5z M287.9,94.6c-0.1,0.2,0,0.3,0.1,0.2c0.8-0.3,1.7-0.6,2.5-0.6c2.1,0,2.9,2.1,2.9,4.1
	c-0.1,4.1-3,8.3-5.7,9.7c-0.8,0.5-1.7,0.9-2.7,0.9c-2.1,0-3.3-2.2-3.3-4.6c0-4,2.5-8.8,5.6-12.1c2.4-2.5,6.6-5.7,9.9-6.6
	c0.2,0,0.9-0.2,0.9,0s-0.4,0.3-0.8,0.5C293,88.1,289,93,287.9,94.6z M287,96.1c-1.5,2.3-3.1,6-3.1,9.8c0,1.3,0.4,2.5,1.4,2.5
	c0.8,0,1.6-0.6,2.5-1.7c1.4-1.8,3.2-6,3.2-8.8c0-1,0-2.8-2-2.8C288.2,95.1,287.3,95.7,287,96.1z"/>
<g>
	<path class="st1" d="M4.2,0l0.4,0.4v21.7h32.7V0.4L37.7,0h3.8l0.4,0.4v53.3l-0.4,0.4h-3.8l-0.4-0.4V26.6H4.6v27.1l-0.4,0.4H0.4
		L0,53.7V0.4L0.4,0H4.2z"/>
	<path class="st1" d="M60,9.3l0.4,0.4v44L60,54.1h-3.8l-0.4-0.4v-44l0.4-0.4H60z"/>
	<path class="st1" d="M112.1,17.6c-5.2-3.6-9.3-4.8-15.9-4.8c-10.9,0-19.7,8.6-19.7,18.9c0,10.3,8.7,18.9,19.7,18.9
		c4.7,0,9.5-1.4,12.6-4.1V35.1H96.5l-0.4-0.4V31l0.4-0.4h16.3l0.4,0.4v18.1c-4.3,4.2-10.9,6.2-17.1,6.2c-13.9,0-24.9-10.6-24.9-23.6
		c0-13,11.1-23.6,24.9-23.6c7.4,0,11.3,1.2,16.3,4.1v5L112.1,17.6z"/>
	<path class="st1" d="M130.5,9.3l0.8,0.4L159.9,47V9.7l0.4-0.4h3.8l0.4,0.4v44l-0.4,0.4h-4.4l-0.8-0.4l-28.7-37.3v37.3l-0.4,0.4
		h-3.8l-0.4-0.4v-44l0.4-0.4H130.5z"/>
	<path class="st1" d="M182.7,9.3l0.4,0.4v44l-0.4,0.4h-3.8l-0.4-0.4v-44l0.4-0.4H182.7z"/>
	<path class="st1" d="M234.7,17.6c-5.2-3.6-9.3-4.8-15.9-4.8c-10.9,0-19.7,8.6-19.7,18.9c0,10.3,8.7,18.9,19.7,18.9
		c4.7,0,9.5-1.4,12.6-4.1V35.1h-12.2l-0.4-0.4V31l0.4-0.4h16.3l0.4,0.4v18.1c-4.3,4.2-10.9,6.2-17.1,6.2
		c-13.9,0-24.9-10.6-24.9-23.6c0-13,11.1-23.6,24.9-23.6c7.4,0,11.3,1.2,16.3,4.1v5L234.7,17.6z"/>
	<path class="st1" d="M252.6,9.3l0.4,0.4v17.8h28V9.7l0.4-0.4h3.8l0.4,0.4v44l-0.4,0.4h-3.8l-0.4-0.4V32h-28v21.7l-0.4,0.4h-3.8
		l-0.4-0.4v-44l0.4-0.4H252.6z"/>
	<path class="st1" d="M333.4,9.3l0.4,0.4v3.7l-0.4,0.4h-16.8v39.9l-0.4,0.4h-3.7l-0.4-0.4V13.8h-16.8l-0.4-0.4V9.7l0.4-0.4H333.4z"
		/>
	<path class="st1" d="M348.9,0l0.4,0.4v5.7c0,7.3-3.7,10.8-9.6,10.8v-0.4c3.5-1.3,5.1-3.9,5.1-10V0.4l0.4-0.4H348.9z"/>
	<path class="st1" d="M380.3,18.6c-2.4-3.6-5-5.8-9.3-5.8c-4.3,0-7.4,2.7-7.4,7c0,8.6,21.4,8.4,21.4,22.3c0,7.6-6.1,13.1-14.8,13.1
		c-6.2,0-12.4-3.5-15.5-10.4l3.2-2.4h0.8c3,5.9,7.5,8.1,11.6,8.1c5.9,0,9.6-3.3,9.6-8.4c0-9.7-21.4-9.8-21.4-22.3
		c0-7,5.3-11.7,12.6-11.7c6.2,0,10.3,3.5,13,8.1l-2.9,2.4H380.3z"/>
	<path class="st1" d="M111.4,74.4c0.2,0.1,0.3,0.2,0.5,0c0.2-0.1,0.3-0.3,0.4-0.4c0.3-0.3,0.7-0.2,0.3,0.8c-1,2.9-6.2,20.2-7.1,23.2
		c-0.2,0.5,0.1,0.9,0.3,0.9c0.9,0,2.2-1.2,3-2.1c0.1-0.2,0.3-0.2,0.3,0c0,0.2-0.2,0.5-0.4,0.8c-0.8,1.3-3,3.5-4.7,3.5
		c-0.5,0-0.9-0.8-0.9-1.2c0-0.3,0.1-0.8,0.3-1.9c0.9-3.7,5.4-18,6.3-21.5c0.2-0.5,0.3-0.9,0-1.3c-0.3-0.5-1-0.7-1.6-0.7
		c-2.7,0-4.8,3.9-7,12.1c0,0.1,0,0.3,0.1,0.3l3-0.1c0.2,0,0.5,0.1,0.5,0.2c0,0.2-0.4,0.5-0.9,0.5c-0.6,0.1-1.8,0.2-2.8,0.2
		c-0.2,0-0.2,0.2-0.3,0.3c-0.8,2.9-3.3,13-4.4,16.8c-1,3.4-3.8,7.3-7.5,7.3c-1,0-2.3-0.9-2.3-1.6c0-0.3,0.3-1,0.8-1.3
		c0.2-0.1,0.6-0.1,0.9,0.2c0.9,0.9,1.7,1.5,2.6,1.5c1.5,0,2.2-1.9,3-4.8c1.3-4.8,3.8-15.3,4.6-18c0-0.2,0-0.4-0.1-0.4h-2.1
		c-0.2,0-0.4-0.1-0.4-0.2c0-0.2,0.5-0.4,0.8-0.5c0.5,0,1.7-0.1,2.1-0.2c0.1,0,0.2-0.2,0.3-0.3c1.6-5.8,3.4-8.5,4.9-10.1
		c1.6-1.7,3.2-2.7,5.5-2.7C110,73.8,110.9,74.1,111.4,74.4z"/>
	<path class="st1" d="M122.3,90.6c0,4-2.8,7.8-4.5,9c-1.5,1.1-2.6,1.4-3.7,1.4c-1.3,0-2.9-1.2-2.9-4.3c0-2,1-5.3,2.8-7.5
		c1.8-2.2,3.7-3.2,5.3-3.2C121.7,86.1,122.3,88.8,122.3,90.6z M115.8,89.9c-1.5,2.4-2.7,5.7-2.7,8.3c0,1.4,0.4,2.2,1.2,2.2
		c0.6,0,1.5-0.5,2.4-1.8c1.8-2.3,3.6-7,3.6-9.6c0-0.9,0-2.5-1-2.5C118.4,86.6,117.3,87.7,115.8,89.9z"/>
	<path class="st1" d="M129.8,87.8c0,0.9-1.2,3.8-1.4,4.6c-0.1,0.4,0.1,0.5,0.3,0.2c0.9-1.4,1.8-2.9,2.8-4.2c1.1-1.4,2.4-2.3,3.4-2.3
		c0.9,0,1.2,0.8,1.2,1.4c0,1.4-1.2,2.2-1.7,2.2c-0.3,0-0.5-0.1-0.4-0.5c0-1.1-0.1-1.7-0.6-1.7c-0.7,0-1.8,1.3-3.7,5.1
		c-1.2,2.2-2.6,5.2-3.8,7.7c-0.2,0.5-0.5,0.7-0.7,0.7c-0.3,0-0.7-0.1-1-0.4c-0.1-0.1-0.1-0.3,0-0.6c0.1-0.5,2-5.9,3.7-10.9
		c0.2-0.7,0.1-1-0.2-1c-0.8,0-1.9,1.3-2.6,1.9c-0.2,0.2-0.4,0-0.4-0.1c0-0.9,1.6-3.6,3.9-3.6C129.4,86.3,129.8,86.9,129.8,87.8z"/>
	<path class="st1" d="M143,87c0,0.3-0.2,1.4-0.5,2c-0.9,2.2-3.1,7.7-4,9.6c-0.3,0.6-0.1,0.7,0.1,0.7c0.5,0,2.2-1.5,2.8-2.2
		c0.6-0.7,0.5,0,0.2,0.4c-1.7,2.3-3.6,3.4-4.8,3.4c-0.3,0-0.7-0.5-0.7-1.1c0-0.4,0.3-1.4,0.9-3c0.7-1.5,2.2-5.5,3.5-8.3
		c0.2-0.4,0.1-0.7-0.1-0.7c-0.6,0-1.5,0.6-2.6,1.7c-0.6,0.6-0.6,0.1-0.3-0.3c1.7-2.1,3.7-3.2,4.8-3.2C142.8,86.1,142.9,86.6,143,87z
		 M144.3,81.1c0,0.9-0.9,1.4-1.4,1.4c-0.7,0-1.1-0.5-1.1-1.2c0-0.7,0.7-1.5,1.3-1.5C144.1,79.8,144.3,80.7,144.3,81.1z"/>
	<path class="st1" d="M152.9,86.8c0.2,0.2,0.3,0.4,0.3,0.7c0,0.5-0.7,1.1-1,1.1c-0.1,0-0.3,0-0.5-0.3c-0.4-0.4-1.1-1-1.7-1
		c-0.9,0-1.6,0.7-1.6,1.9c0,0.9,0.4,1.9,1.5,3.7c0.7,1.4,1.2,2.6,1.1,3.5c0,1.2-0.8,2.3-2.3,3.4c-1.2,0.9-2.5,1.2-3.4,1.2
		c-1.2,0-2.1-1-2.1-1.9c0-0.4,0.2-1.2,0.5-1.4c0.2-0.1,0.3-0.2,0.4,0c0.6,1.1,1.6,2.1,2.9,2.1c1.2,0,2.1-0.8,2.1-2.2
		c0-0.7-0.3-1.7-1.2-3.3c-1-1.8-1.3-2.7-1.3-3.4c0-1,0.5-2.4,1.9-3.5c1-0.9,2.1-1.4,3-1.4C152,86.1,152.6,86.4,152.9,86.8z"/>
	<path class="st1" d="M160,87.5c-0.2,0-0.3,0.3-0.4,0.5c-0.5,1.3-2.3,6.3-3.3,9.7c-0.1,0.3,0,0.6,0.2,0.6c0.4,0,1.6-0.7,3-2.2
		c0.7-0.7,0.5,0,0.2,0.5c-1.5,2.2-4.2,4.3-5.4,4.3c-0.3,0-0.8-0.4-0.8-0.9c0-0.5,0.2-1.2,0.4-1.8c0.5-1.3,2.3-6.8,3.5-10.2
		c0-0.2,0.1-0.4-0.1-0.4c-0.6,0-1.1,0-1.6,0c-0.3,0-0.3-0.1-0.3-0.2c0-0.2,0.4-0.4,0.5-0.5c0.2,0,0.7-0.1,1.7-0.2
		c0.1,0,0.2-0.2,0.3-0.3c0.4-0.7,1-2.2,1.4-2.8c0.3-0.3,1-0.8,1.6-0.8c0.2,0,0.2,0.3,0.1,0.6c-0.3,1-0.6,2.2-0.9,2.9
		c0,0.1,0,0.2,0,0.2c0.7,0,1.8,0,2.9,0c0.1,0,0.3,0.1,0.3,0.2c0,0.1-0.2,0.5-0.8,0.5C161.7,87.4,160.3,87.5,160,87.5z"/>
	<path class="st1" d="M170.6,86.8c0.2,0.2,0.3,0.4,0.3,0.7c0,0.5-0.7,1.1-1,1.1c-0.1,0-0.3,0-0.5-0.3c-0.4-0.4-1.1-1-1.7-1
		c-0.9,0-1.6,0.7-1.6,1.9c0,0.9,0.4,1.9,1.5,3.7c0.7,1.4,1.2,2.6,1.1,3.5c0,1.2-0.8,2.3-2.3,3.4c-1.2,0.9-2.5,1.2-3.4,1.2
		c-1.2,0-2.1-1-2.1-1.9c0-0.4,0.2-1.2,0.5-1.4c0.2-0.1,0.3-0.2,0.4,0c0.6,1.1,1.6,2.1,2.9,2.1c1.2,0,2.1-0.8,2.1-2.2
		c0-0.7-0.3-1.7-1.2-3.3c-1-1.8-1.3-2.7-1.3-3.4c0-1,0.5-2.4,1.9-3.5c1-0.9,2.1-1.4,3-1.4C169.7,86.1,170.3,86.4,170.6,86.8z"/>
	<path class="st1" d="M185.4,86.8c0.2,0.2,0.3,0.4,0.3,0.7c0,0.5-0.7,1.1-1,1.1c-0.1,0-0.3,0-0.5-0.3c-0.4-0.4-1.1-1-1.7-1
		c-0.9,0-1.6,0.7-1.6,1.9c0,0.9,0.4,1.9,1.5,3.7c0.7,1.4,1.2,2.6,1.1,3.5c0,1.2-0.8,2.3-2.3,3.4c-1.2,0.9-2.5,1.2-3.4,1.2
		c-1.2,0-2.1-1-2.1-1.9c0-0.4,0.2-1.2,0.5-1.4c0.2-0.1,0.3-0.2,0.4,0c0.6,1.1,1.6,2.1,2.9,2.1c1.2,0,2.1-0.8,2.1-2.2
		c0-0.7-0.3-1.7-1.2-3.3c-1-1.8-1.3-2.7-1.3-3.4c0-1,0.5-2.4,1.9-3.5c1-0.9,2.1-1.4,3-1.4C184.4,86.1,185,86.4,185.4,86.8z"/>
	<path class="st1" d="M193.1,87c0,0.3-0.2,1.4-0.5,2c-0.9,2.2-3.1,7.7-4,9.6c-0.3,0.6-0.1,0.7,0.1,0.7c0.5,0,2.2-1.5,2.8-2.2
		c0.6-0.7,0.5,0,0.2,0.4c-1.7,2.3-3.6,3.4-4.8,3.4c-0.3,0-0.7-0.5-0.7-1.1c0-0.4,0.3-1.4,0.9-3c0.7-1.5,2.2-5.5,3.5-8.3
		c0.2-0.4,0.1-0.7-0.1-0.7c-0.6,0-1.5,0.6-2.6,1.7c-0.6,0.6-0.6,0.1-0.3-0.3c1.7-2.1,3.7-3.2,4.8-3.2C192.9,86.1,193,86.6,193.1,87z
		 M194.4,81.1c0,0.9-0.9,1.4-1.4,1.4c-0.7,0-1.1-0.5-1.1-1.2c0-0.7,0.7-1.5,1.3-1.5C194.2,79.8,194.4,80.7,194.4,81.1z"/>
	<path class="st1" d="M200.8,87.7c-0.1,0.4-0.4,1.5-1.6,4.2c-0.2,0.4,0,0.4,0.3,0.1c1.7-2.2,4.9-5.9,7.9-5.9c0.9,0,1.3,0.7,1.3,1.4
		c0,0.5-0.2,1.2-0.7,2.3c-0.9,2.5-2.8,6.6-3.3,7.9c-0.1,0.4-0.1,0.5,0.2,0.5c0.5,0,2.1-1.2,3.2-2.4c0.4-0.3,0.4,0.1,0,0.6
		c-1.6,2.3-4.6,4.5-6,4.5c-0.5,0-0.7-0.8-0.5-1.2c0.2-0.5,4.2-9.3,4.9-11.2c0.2-0.7,0.1-1.4-0.5-1.4c-0.9,0-2.4,0.9-4.8,4
		c-1.9,2.6-3.5,5.9-5.3,9c-0.2,0.3-0.7,0.5-1.3,0.5c-0.2,0-0.5-0.2-0.4-0.5c0-0.3,0.2-0.9,0.5-1.4c1.2-2.7,3.6-8.4,4.3-10
		c0.3-0.6,0.2-0.9-0.4-0.9c-0.6,0-1.5,0.5-2.3,1.6c-0.2,0.3-0.4,0.2-0.3-0.3c0.3-0.9,1.4-3.2,3.8-3.2
		C200.7,86.1,201,87.3,200.8,87.7z"/>
	<path class="st1" d="M220.7,86.8c0.2,0.2,0.4,0.5,0.4,0.9c0,0.6-0.8,1-1,1c-0.3,0-0.6-0.2-1-0.7c-0.5-0.8-0.9-1.2-1.4-1.2
		c-0.9,0-1.8,1.2-2.8,2.9c-1.1,1.9-2.1,5.2-2.1,7.7c0,1.2,0.6,2,1.3,2c1,0,2.4-0.9,3.7-2.4c0.3-0.3,0.4-0.4,0.5-0.4
		c0.2,0-0.1,0.7-0.3,1c-0.9,1.7-2.9,3.3-4.8,3.3c-1.2,0-2.7-1.1-2.7-4c0-0.7,0.2-2.6,1.2-4.9c0.9-2,2.4-4.2,4.8-5.3
		c0.9-0.5,1.7-0.7,2.4-0.7C219.5,86.1,220.2,86.4,220.7,86.8z"/>
	<path class="st1" d="M231.8,88c0,0.8-0.6,2-1.9,3c-1.5,1.2-3.7,1.9-5.4,2c-0.2,0-0.3,0.2-0.3,0.3c-0.4,1-0.8,2.8-0.8,4
		c0,0.7,0.1,1.9,1.6,1.9c1.1,0,2.3-0.9,3.3-2.1c0.2-0.2,0.3-0.3,0.3-0.1c0,0.1,0,0.5-0.3,1c-0.9,1.6-2.6,2.9-4.6,2.9
		c-1.3,0-2.6-1.5-2.6-3.7c0-2.7,1.4-5.8,2.6-7.4c1.6-2.2,4-3.8,5.9-3.8C231.2,86.1,231.8,87,231.8,88z M224.5,92.3
		c0,0.1,0,0.2,0.2,0.1c2.3-0.3,5.5-3.1,5.5-4.7c0-0.7-0.3-1.1-0.8-1.1C227.7,86.6,225.7,89,224.5,92.3z"/>
	<path class="st1" d="M246.4,86.2c0.9,0,0.6,0.4,0,0.5c-1.2,0.2-1.5,0.3-2.2,2.1c-0.5,1.5-2.8,8-3,9c-0.5,1.5-0.4,1.9,1.1,2.1
		c0.9,0.2,0.5,0.5-0.1,0.5c-0.6,0-2-0.1-2.5-0.1c-1.2,0-2.3,0.2-3.3,0.2c-0.9,0-0.8-0.4,0-0.5c1.5-0.2,1.6-0.3,2.4-2.2
		c0.6-1.5,2.5-6.9,3-8.5c0.6-2,0.5-2.3-0.8-2.4c-1.1-0.1-0.8-0.6,0-0.6C243.9,86.4,245,86.2,246.4,86.2z"/>
	<path class="st1" d="M257.7,90c0,3-1.5,7-4.3,10.4c-2.3,2.6-5,4.8-7.6,6.1c-1.4,0.7-2.6,0.9-2.8,0.9c-0.2,0-0.4,0-0.4-0.2
		c0-0.1,0.3-0.2,0.4-0.3c3.3-1.7,6.4-4.7,8.9-7.8c0.1-0.2,0.1-0.2,0-0.2c-0.6,0.1-1.7,0.4-2,0.4c-1.7,0-2.8-1.6-2.8-3.6
		c0-2.9,1.8-6.1,3.5-7.8c1.3-1.2,2.8-1.9,4-1.9C256.8,86,257.7,88.3,257.7,90z M251.1,89.9c-1.1,1.9-1.8,4.6-1.8,6.1
		c0,1.9,0.9,2.5,1.7,2.5c0.8,0,1.4-0.3,1.8-0.9c0.8-1.3,2.8-5.5,2.8-8.7c0-0.9-0.1-2.5-1.2-2.5C253.5,86.4,252.4,87.4,251.1,89.9z"
		/>
	<path class="st1" d="M272.6,86.5c-0.9,2.9-2.3,6.4-3.7,10.9c0,0.1,0,0.3,0.2,0.3c1.6-0.2,3.5-0.3,4.2-0.3c0.2,0,0.2,0.1,0.2,0.2
		c0,0.3-0.5,0.9-0.9,1c-0.3,0.1-3,0.4-3.8,0.5c-0.3,0-0.3,0.2-0.4,0.3c-0.4,1.2-1.3,4.1-2.3,6.7c-0.1,0.2-0.7,0.6-1,0.7
		c-0.4,0.2-1,0.3-1.1,0.3c-0.2,0-0.3-0.3-0.3-0.4c0.3-1,1.4-4,2.4-7c0-0.1,0-0.2-0.1-0.2c-2.2,0.2-5.3,0.5-7.6,0.7
		c-0.4,0-0.4-0.1-0.4-0.2c0-0.1,0.1-0.3,0.3-0.5c1-1,2.1-1.9,3.1-2.9c3.3-3.1,7.3-7,10.6-10c0.3-0.2,0.5-0.4,0.7-0.4
		C272.6,85.9,272.6,86.2,272.6,86.5z M266.6,97.6c1.5-3.8,2.6-7.1,3-8.2c0.1-0.3,0-0.2-0.2-0.1c-2,1.7-7,6.6-9.1,8.9
		c-0.1,0.1-0.1,0.2,0.1,0.2c1.3-0.1,4.5-0.3,5.9-0.5C266.4,97.9,266.6,97.7,266.6,97.6z"/>
	<path class="st1" d="M281.3,87.4c-0.1,0.2,0,0.3,0.1,0.2c0.7-0.3,1.6-0.5,2.3-0.5c1.9,0,2.8,2,2.8,3.9c-0.1,3.8-2.8,7.8-5.4,9.2
		c-0.7,0.5-1.6,0.8-2.5,0.8c-2,0-3.1-2.1-3.1-4.3c0-3.7,2.3-8.3,5.3-11.4c2.3-2.4,6.3-5.4,9.4-6.2c0.2,0,0.8-0.2,0.8,0
		c0,0.2-0.3,0.3-0.8,0.5C286.1,81.4,282.4,85.8,281.3,87.4z M280.5,88.9c-1.4,2.2-2.9,5.7-2.9,9.2c0,1.2,0.4,2.4,1.3,2.4
		c0.8,0,1.5-0.6,2.3-1.6c1.3-1.7,3-5.6,3-8.3c0-0.9,0-2.7-1.9-2.7C281.6,87.9,280.8,88.5,280.5,88.9z"/>
</g>
</svg>
