<?xml version="1.0" encoding="utf-8"?>
<!-- Generator: Adobe Illustrator 19.2.1, SVG Export Plug-In . SVG Version: 6.00 Build 0)  -->
<svg version="1.1" id="Layer_1" xmlns="http://www.w3.org/2000/svg" xmlns:xlink="http://www.w3.org/1999/xlink" x="0px" y="0px"
	 viewBox="0 0 400 129" style="enable-background:new 0 0 400 129;" xml:space="preserve">
<style type="text/css">
	.st0{fill:#FFFFFF;}
</style>
<path class="st0" d="M5.6,13c-0.3-5.3-0.1-6.4-4-7.4c-1-0.2-1.5-0.5-1.5-0.8c0-0.5,0.5-0.5,1.6-0.5c1.5,0,4.1,0.5,6.8,0.5
	c2.3,0,5.7-0.4,6.8-0.4c1,0,1.4,0.2,1.4,0.5s-0.5,0.6-1.2,0.7c-3.3,0.7-3.7,2.2-4,5.2c-0.2,2.2-0.3,17.6-0.3,19.3
	c0,0.9,0.2,1.7,0.7,1.8c2.6,0.2,16.2,0.1,25.3,0.1c8.4,0,9.5-0.3,9.9-0.3c0.6-0.1,0.7-0.3,0.8-1.6c0.2-3-0.2-13.3-0.4-16.7
	c-0.3-5.7-0.3-7.4-4.3-7.9c-0.7-0.1-1.3-0.4-1.3-0.7c0-0.2,0.4-0.5,1.2-0.5c2,0,5.1,0.4,7.8,0.4c2.8,0,4.9-0.4,6.6-0.4
	c1,0,1.5,0.1,1.5,0.5c0,0.3-0.3,0.5-1.3,0.8c-4,0.8-4.2,2.5-4.2,6.7c-0.1,3.6,0,16.4,0.2,22.7c0.2,6.2,0.2,10,0.5,19.5
	c0.2,4.6,0.6,5.7,4.6,6.6c1,0.3,1.4,0.5,1.4,0.8c0,0.4-0.5,0.5-1.4,0.5c-1.3,0-6.2-0.3-8.2-0.3c-1.7,0-4.7,0.2-6.3,0.2
	c-1.1,0-1.7-0.2-1.7-0.6c0-0.3,0.4-0.5,1.5-0.7c3.1-0.6,4-1.2,4.1-5.1c0.1-4.7,0.3-17.1,0.1-18.9c-0.1-1.3-0.1-2.2-0.6-2.2
	c-2.9-0.2-16-0.4-24.9-0.4c-4.3,0-9.8-0.1-10.9-0.1c-0.3,0-0.6,0.7-0.6,2.3c0,11.3,0.5,19.6,0.9,21.4c0.4,1.9,1.8,2.6,3.6,3.1
	c1.3,0.3,1.6,0.6,1.6,0.9c0,0.4-0.6,0.5-1.6,0.5c-1.7,0-4.7-0.5-7.5-0.5c-2.3,0-5.3,0.4-6.7,0.4c-0.9,0-1.5-0.3-1.5-0.5
	c0-0.5,0.6-0.7,1.5-0.9c3.1-0.6,3.7-1.6,3.9-4.4c0.2-2.8,0.4-9.4,0.4-23.7C5.8,28.3,5.7,16.4,5.6,13z M77.2,40.1
	c0,9.8-0.1,15.4,0.1,17.3c0.2,2.3,0.7,3.1,3.8,3.6c0.8,0.3,1.3,0.5,1.3,0.8c0,0.5-0.8,0.5-1.6,0.5c-1.1,0-4.5-0.3-6.6-0.3
	c-1.8,0-4.2,0.4-5.9,0.4c-0.7,0-1.5-0.2-1.5-0.5s0.5-0.6,1.6-0.8c2.6-0.4,3.6-1.6,3.6-5.3c0.1-3.9,0.1-23.5,0.1-26.6
	c0-3.5-0.1-4.9-0.2-5.7c-0.3-1.9-1.7-2.4-3.6-2.7c-0.6-0.1-1.3-0.5-1.3-0.7c0-0.5,0.8-0.5,1.4-0.5c2,0,3.7,0.3,6,0.3
	c1.8,0,5.2-0.3,6.5-0.3c0.5,0,1.4,0.2,1.4,0.5c0,0.4-0.5,0.6-1.6,0.8c-2.5,0.5-3.1,1.3-3.2,3.6C77.3,28,77.2,35.6,77.2,40.1z
	 M98,57.7c-4.8-4.1-7.5-9.9-7.5-16.2c0-7,2.9-13.3,9.6-18.2c3.3-2.4,8.2-4.7,16.5-4.7c3.1,0,5.9,0.5,8.9,1.3c1.6,0.5,4,1.4,4.7,1.7
	c0.6,0.3,0.9,0.7,0.9,1.6c0,0.4,0.5,3.8,0.7,4.7c0.3,1.3,0.1,2.1-0.3,2.1c-0.5,0-0.8-0.5-1.2-1.5c-0.8-2-2.1-3.7-3.7-5.2
	c-2.6-2.2-6.2-3.6-10.9-3.6c-5.5,0-10.1,2.4-13.1,5.4c-3.6,3.4-6.3,9.1-6.3,15.7c0,9,4.5,14.7,8.2,17.4c3.2,2.5,7.7,3.9,10.9,3.9
	c3.5,0,7.5-0.7,9.5-2.6c0.6-0.5,1-2.5,1-3.6c0-1.6,0.2-5.7,0-7.8c-0.2-2.4-1.3-3-4.4-3.5c-0.9-0.1-1.4-0.5-1.4-0.7
	c0-0.4,0.6-0.6,2.1-0.6c1.9,0,3.9,0.2,5.7,0.2c1.4,0,3.8-0.3,5.3-0.3c1,0,1.8,0,1.8,0.5c0,0.4-1.1,0.6-1.6,0.8
	c-2.1,0.8-2.6,1.3-2.6,4.6c0,3,0.5,7.8,0.5,8.7s0.1,1.6-0.5,1.9c-0.6,0.2-2.1,0.9-3.9,1.5c-3.1,1.1-7.3,2.3-11.2,2.3
	C108.6,63.6,102.4,61.5,98,57.7z M186.5,19.6c1,0,1.5,0.2,1.5,0.5c0,0.4-0.7,0.7-1.6,0.9c-2.7,0.7-3.4,2.3-3.6,4
	c-0.3,2.9-0.5,17.2-0.5,23.5c0,6.2-0.2,9.1,0,12.6c0.1,1.4-0.1,2.1-0.6,2.1c-0.4,0-1.2-0.8-2.4-2.3s-20.2-24.3-29.6-35.2
	c-0.2-0.2-0.6-0.3-0.6,0c0,2.4,0,25,0,27.7c0,5.7,0.6,6.9,4.5,7.7c1,0.2,1.6,0.5,1.6,0.8c0,0.4-0.2,0.5-1.6,0.5
	c-1.2,0-3.6-0.4-5.8-0.4c-2.1,0-4.3,0.4-4.9,0.4c-0.6,0-1.7,0-1.7-0.6c0-0.4,0.9-0.6,1.6-0.7c3.1-0.5,3.7-1.8,4.1-6.2
	c0.2-3.1,0.6-23.7,0.6-27.9c0-3.6-0.4-4.4-1.1-5c-1-0.8-2.1-1-3.5-1.3c-1.1-0.2-1.5-0.5-1.5-0.7c0-0.4,0.5-0.5,1.5-0.5
	c1.7,0,4.6,0.4,7.9,0.4c0.4,0,1,0.7,1.6,1.6c4.4,5.7,21.4,25.2,27.7,32.2c0.3,0.3,0.5,0,0.5-0.3c0-2.5,0-21.4-0.1-27.2
	c-0.1-3.9-1.2-4.6-4.7-5.2c-0.8-0.1-1.5-0.5-1.5-0.8c0-0.5,0.8-0.5,1.6-0.5c1.3,0,3.8,0.3,5.5,0.3C183.3,19.9,184.8,19.6,186.5,19.6
	z M204.3,40.1c0,9.8-0.1,15.4,0.1,17.3c0.2,2.3,0.7,3.1,3.8,3.6c0.8,0.3,1.3,0.5,1.3,0.8c0,0.5-0.8,0.5-1.6,0.5
	c-1.1,0-4.5-0.3-6.6-0.3c-1.8,0-4.2,0.4-5.9,0.4c-0.7,0-1.5-0.2-1.5-0.5s0.5-0.6,1.5-0.8c2.6-0.4,3.6-1.6,3.6-5.3
	c0.1-3.9,0.1-23.5,0.1-26.6c0-3.5-0.1-4.9-0.2-5.7c-0.3-1.9-1.7-2.4-3.6-2.7c-0.6-0.1-1.3-0.5-1.3-0.7c0-0.5,0.8-0.5,1.4-0.5
	c2,0,3.7,0.3,6,0.3c1.8,0,5.2-0.3,6.5-0.3c0.5,0,1.4,0.2,1.4,0.5c0,0.4-0.5,0.6-1.5,0.8c-2.5,0.5-3.1,1.3-3.2,3.6
	C204.4,28,204.3,35.6,204.3,40.1z M225.1,57.7c-4.8-4.1-7.5-9.9-7.5-16.2c0-7,2.9-13.3,9.6-18.2c3.3-2.4,8.2-4.7,16.5-4.7
	c3.1,0,5.9,0.5,8.9,1.3c1.6,0.5,4,1.4,4.7,1.7c0.6,0.3,0.9,0.7,0.9,1.6c0,0.4,0.5,3.8,0.7,4.7c0.3,1.3,0.1,2.1-0.3,2.1
	c-0.5,0-0.8-0.5-1.2-1.5c-0.8-2-2.1-3.7-3.7-5.2c-2.6-2.2-6.2-3.6-10.9-3.6c-5.5,0-10.1,2.4-13.1,5.4c-3.6,3.4-6.3,9.1-6.3,15.7
	c0,9,4.5,14.7,8.2,17.4c3.2,2.5,7.7,3.9,10.9,3.9c3.5,0,7.5-0.7,9.5-2.6c0.6-0.5,1-2.5,1-3.6c0-1.6,0.2-5.7,0-7.8
	c-0.2-2.4-1.3-3-4.4-3.5c-0.9-0.1-1.4-0.5-1.4-0.7c0-0.4,0.6-0.6,2.1-0.6c1.9,0,3.9,0.2,5.7,0.2c1.4,0,3.8-0.3,5.3-0.3
	c1,0,1.8,0,1.8,0.5c0,0.4-1.1,0.6-1.5,0.8c-2.1,0.8-2.6,1.3-2.6,4.6c0,3,0.5,7.8,0.5,8.7s0.1,1.6-0.5,1.9c-0.6,0.2-2.1,0.9-3.9,1.5
	c-3.1,1.1-7.3,2.3-11.2,2.3C235.7,63.6,229.5,61.5,225.1,57.7z M274.4,25.9c0-2.9-0.5-4.4-3.5-4.9c-0.9-0.2-1.6-0.5-1.6-0.8
	c0-0.4,0.9-0.5,1.6-0.5c1.2,0,3.6,0.3,5.8,0.3c1.8,0,5.4-0.3,6.3-0.3c0.8,0,1.5,0.1,1.5,0.5c0,0.5-0.9,0.8-1.5,0.9
	c-2.4,0.5-3.1,1.4-3.2,3.6c0,1.5-0.2,12.8-0.1,13.6c0.1,0.6,0.2,1.3,0.6,1.3c1.8,0,12.2,0,19.1,0c6.2,0,6.8,0,7.3-0.1
	s0.6-0.4,0.7-0.8c0.2-1,0.1-9.8,0-12.1c-0.2-3.9-0.8-4.9-3.4-5.3c-0.8-0.2-1.7-0.5-1.7-0.8c0-0.5,0.7-0.6,1.7-0.6
	c3.1,0,3.4,0.3,6.3,0.3c2.3,0,3.8-0.3,5.6-0.3c1.3,0,1.8,0.2,1.8,0.5s-0.5,0.6-1.5,0.7c-3.2,0.5-3.6,1.9-3.6,4.7
	c0,1.7-0.1,12,0,16.7c0.1,4.6,0.2,11.3,0.2,13.4c0,3.8,0.4,4.7,4,5.5c0.9,0.2,1.5,0.4,1.5,0.8c0,0.4-0.6,0.5-1.6,0.5
	c-1.2,0-5.2-0.3-6.7-0.3c-1.9,0-4.8,0.3-5.7,0.3c-1.3,0-1.8-0.2-1.8-0.5c0-0.5,0.7-0.6,1.4-0.8c2.7-0.5,3.3-0.8,3.6-3.6
	c0.1-1.2,0.1-6.7,0.1-14.1c0-0.8-0.5-1.6-0.7-1.6c-1.3-0.2-5.5-0.3-14.9-0.3c-4.7,0-10.8,0-11.8,0c-0.4,0-0.6,0.5-0.6,1.4
	c0,14.3,0.2,15.1,0.4,15.9c0.3,1.4,1.1,1.7,3.2,2.3c1,0.3,1.6,0.5,1.6,0.9c0,0.5-1.2,0.5-1.6,0.5c-1.4,0-4.3-0.3-6.5-0.3
	c-1.9,0-4.5,0.3-5.6,0.3c-0.7,0-1.8-0.1-1.8-0.6c0-0.3,0.9-0.6,1.6-0.7c3.1-0.6,3.2-1.5,3.4-3.4c0.2-1.9,0.3-6.4,0.3-17V25.9H274.4z
	 M355.9,19.9c3.3,0,4.6-0.2,5.7-0.6c0.5-0.3,0.9-0.5,1.1-0.4c0.2,0.2,0.2,0.5,0.1,0.8c-0.3,0.5-0.5,3.6-0.5,6.7c0,1-0.2,1.7-0.5,1.7
	s-0.5-0.6-0.6-1.1c-0.2-0.9-0.9-3.5-1.4-4.1c-0.5-0.7-0.7-1.1-3-1.1c-1.6,0-9.2,0-10.7,0c-0.4,0-0.5,0.8-0.5,1.2l-0.2,24
	c0,4,0,8.8,0.3,10.9c0.3,2,1.3,2.7,3.6,3.2c1,0.2,1.6,0.5,1.6,0.9s-1.1,0.5-1.7,0.5c-2.2,0-3.7-0.4-6.5-0.4c-3.7,0-5.4,0.4-6.5,0.4
	c-1.3,0-1.7-0.3-1.7-0.5c0-0.4,0.6-0.6,1.6-0.8c3.4-0.5,3.8-1.3,3.9-4.7c0.3-6.8,0.5-32.7,0.5-33.5c0-0.4-0.1-1.1-0.5-1.2
	c-0.6,0-2.6,0-5.7,0c-3,0-5.2,0.1-6.1,0.2c-1.4,0.2-2.5,1.1-3.2,4.7c-0.2,0.8-0.5,1.3-0.7,1.3c-0.4,0-0.5-0.5-0.5-1.4
	c0-1.5,0.7-4.6,0.7-6.9c0-0.5,0.1-0.8,0.3-1c0.3-0.2,0.5,0,0.8,0.4c0.3,0.3,1.3,0.5,2.3,0.5c1,0.1,8.4,0.3,15.9,0.3L355.9,19.9
	L355.9,19.9z M375.1,6.3c0,5.8-6.5,8.4-7.8,8.4c-0.5,0-0.8-0.2-0.8-0.5c0-0.1,0.4-0.5,0.9-0.7c2.9-1.5,4.7-3.6,4.7-5.9
	c0-1.7-1.1-2.8-3.6-3.4c-0.6-0.2-1.7-0.6-1.7-1.7c0-1.2,1.1-2.3,2.6-2.3C373,0.2,375.1,3.4,375.1,6.3z M380.6,27.8
	c0,3.6,2.3,6.1,4.6,7.8c2.6,1.7,5,3.3,7.7,4.8c2.7,1.8,7.2,5,7.2,10.7c0,7.8-7.1,12.5-14.4,12.5c-3.3,0-7.3-0.8-9.7-2
	c-0.9-0.3-1.1-1.5-1.4-2.6c-0.1-1.2-0.4-2.6-0.5-4.9c-0.1-0.8,0-1.6,0.4-1.6s0.8,0.6,1.2,1.7c0.7,2.5,1.8,4.4,3.5,5.7
	c2.2,1.7,5.1,2.3,6.8,2.3c5.7,0,8.9-3.6,8.9-8.4c0-4.9-2.7-7.4-8.8-11c-5.2-3.1-9.9-6.8-9.9-12.9c0-3.3,1.6-6.7,4.4-8.7
	c2.6-1.9,6.1-2.7,9.2-2.7c3.6,0,6.6,1.1,7.5,1.5c0.5,0.2,0.8,0.5,0.9,0.9c0,1.9,0.4,4.1,0.5,5.1c0.2,1,0.1,1.6-0.3,1.6
	s-0.6-0.5-0.9-1.4c-0.7-2-1.6-3.5-3-4.5c-1.6-1.4-3.8-2-5.9-2C385,19.8,380.6,21.7,380.6,27.8z M115.9,89.3c0.2,0.1,0.4,0.2,0.6,0
	c0.2-0.1,0.3-0.3,0.5-0.5c0.3-0.3,0.7-0.2,0.3,0.8c-1.1,3.1-6.6,21.5-7.5,24.6c-0.2,0.6,0.1,0.9,0.3,0.9c0.9,0,2.3-1.2,3.2-2.3
	c0.1-0.2,0.3-0.2,0.3,0s-0.2,0.5-0.4,0.8c-0.9,1.4-3.2,3.7-5,3.7c-0.5,0-0.9-0.9-0.9-1.3c0-0.3,0.1-0.9,0.4-2
	c0.9-3.9,5.7-19.1,6.6-22.9c0.2-0.5,0.3-0.9,0-1.4c-0.4-0.5-1.1-0.8-1.7-0.8c-2.8,0-5.1,4.1-7.4,12.8c0,0.1,0,0.3,0.1,0.3l3.1-0.1
	c0.2,0,0.5,0.1,0.5,0.2c0,0.2-0.5,0.5-0.9,0.5c-0.7,0.1-1.9,0.2-3,0.2c-0.2,0-0.2,0.2-0.3,0.3c-0.8,3-3.5,13.8-4.6,17.8
	c-1.1,3.6-4,7.8-8,7.8c-1.1,0-2.5-1-2.5-1.7c0-0.3,0.3-1.1,0.8-1.4c0.2-0.1,0.7-0.1,0.9,0.2c0.9,0.9,1.8,1.6,2.7,1.6
	c1.6,0,2.3-2,3.2-5.1c1.4-5,4.1-16.2,4.8-19.1c0-0.2,0-0.4-0.1-0.4h-2.2c-0.2,0-0.5-0.1-0.5-0.2c0-0.2,0.6-0.5,0.8-0.5
	c0.6,0,1.8-0.1,2.2-0.2c0.1,0,0.2-0.2,0.3-0.3c1.7-6.1,3.6-9.1,5.2-10.7c1.7-1.8,3.4-2.8,5.8-2.8C114.4,88.6,115.3,89,115.9,89.3z
	 M127.4,106.5c0,4.2-2.9,8.3-4.7,9.6c-1.6,1.2-2.8,1.5-3.9,1.5c-1.4,0-3-1.3-3-4.5c0-2.2,1-5.7,2.9-8c1.9-2.4,3.9-3.4,5.6-3.4
	C126.7,101.6,127.4,104.5,127.4,106.5z M120.5,105.7c-1.6,2.5-2.8,6-2.8,8.8c0,1.5,0.5,2.3,1.3,2.3c0.7,0,1.6-0.6,2.6-1.9
	c1.9-2.5,3.8-7.4,3.8-10.2c0-1,0-2.6-1.1-2.6C123.3,102.2,122.1,103.3,120.5,105.7z M135.3,103.5c0,0.9-1.3,4-1.5,4.9
	c-0.1,0.5,0.1,0.6,0.3,0.2c0.9-1.5,1.9-3.1,3-4.4c1.1-1.5,2.5-2.5,3.6-2.5c0.9,0,1.3,0.8,1.3,1.5c0,1.5-1.3,2.4-1.8,2.4
	c-0.3,0-0.5-0.1-0.5-0.5c0-1.1-0.1-1.8-0.7-1.8c-0.7,0-1.9,1.4-3.9,5.4c-1.2,2.4-2.7,5.5-4,8.2c-0.2,0.6-0.6,0.8-0.7,0.8
	c-0.3,0-0.8-0.1-1-0.5c-0.1-0.1-0.1-0.3,0-0.6c0.1-0.6,2.1-6.3,3.9-11.6c0.2-0.7,0.1-1-0.2-1c-0.9,0-2.1,1.4-2.7,2.1
	c-0.2,0.2-0.4,0-0.4-0.1c0-0.9,1.7-3.8,4.1-3.8C134.9,102,135.3,102.5,135.3,103.5z M149.2,102.6c0,0.3-0.2,1.4-0.5,2.1
	c-0.9,2.3-3.3,8.2-4.2,10.2c-0.3,0.7-0.1,0.8,0.1,0.8c0.6,0,2.3-1.6,3-2.3c0.7-0.7,0.5,0,0.2,0.5c-1.8,2.4-3.8,3.6-5.1,3.6
	c-0.3,0-0.8-0.6-0.8-1.1s0.3-1.5,1-3.2c0.7-1.6,2.3-5.8,3.7-8.8c0.2-0.5,0.1-0.7-0.1-0.7c-0.6,0-1.6,0.6-2.7,1.8
	c-0.7,0.7-0.7,0.1-0.3-0.4c1.8-2.3,3.9-3.4,5.1-3.4C149,101.6,149.2,102.2,149.2,102.6z M150.6,96.3c0,1-0.9,1.5-1.4,1.5
	c-0.7,0-1.1-0.6-1.1-1.3c0-0.8,0.7-1.6,1.4-1.6C150.4,95,150.6,96,150.6,96.3z M159.7,102.5c0.2,0.2,0.3,0.5,0.3,0.7
	c0,0.5-0.8,1.2-1.1,1.2c-0.1,0-0.3,0-0.6-0.3c-0.5-0.4-1.1-1-1.8-1c-0.9,0-1.7,0.7-1.7,2c0,0.9,0.4,2.1,1.6,3.9
	c0.8,1.4,1.2,2.7,1.2,3.7c0,1.2-0.9,2.5-2.4,3.6c-1.3,1-2.7,1.3-3.6,1.3c-1.3,0-2.2-1-2.2-2.1c0-0.4,0.2-1.2,0.5-1.5
	c0.2-0.1,0.3-0.2,0.5,0c0.7,1.2,1.7,2.3,3.1,2.3c1.2,0,2.3-0.8,2.2-2.3c0-0.8-0.3-1.8-1.2-3.5c-1.1-1.9-1.4-2.9-1.4-3.6
	c0-1,0.6-2.5,2-3.7c1.1-0.9,2.2-1.5,3.1-1.5C158.7,101.6,159.4,102,159.7,102.5z M167.2,103.2c-0.2,0-0.3,0.3-0.4,0.6
	c-0.5,1.4-2.4,6.7-3.5,10.3c-0.1,0.3,0,0.7,0.2,0.7c0.5,0,1.7-0.7,3.2-2.3c0.7-0.7,0.5,0,0.2,0.5c-1.6,2.3-4.4,4.6-5.7,4.6
	c-0.3,0-0.8-0.4-0.8-1c0-0.5,0.2-1.3,0.5-1.9c0.5-1.4,2.4-7.2,3.7-10.8c0-0.2,0.1-0.5-0.1-0.5c-0.6,0-1.2,0-1.6,0
	c-0.3,0-0.3-0.1-0.3-0.2c0-0.2,0.4-0.5,0.5-0.5c0.2,0,0.8-0.1,1.8-0.2c0.1,0,0.2-0.2,0.3-0.3c0.4-0.8,1.1-2.3,1.5-3
	c0.3-0.4,1.1-0.8,1.7-0.8c0.2,0,0.2,0.3,0.1,0.7c-0.3,1.1-0.7,2.3-0.9,3c0,0.1,0,0.2,0,0.2c0.8,0,1.9,0,3.1,0c0.1,0,0.3,0.1,0.3,0.2
	s-0.2,0.5-0.9,0.6C169.1,103.1,167.5,103.2,167.2,103.2z M178.4,102.5c0.2,0.2,0.3,0.5,0.3,0.7c0,0.5-0.8,1.2-1.1,1.2
	c-0.1,0-0.3,0-0.6-0.3c-0.5-0.4-1.1-1-1.8-1c-0.9,0-1.7,0.7-1.7,2c0,0.9,0.4,2.1,1.6,3.9c0.8,1.4,1.2,2.7,1.2,3.7
	c0,1.2-0.9,2.5-2.4,3.6c-1.3,1-2.7,1.3-3.6,1.3c-1.3,0-2.2-1-2.2-2.1c0-0.4,0.2-1.2,0.5-1.5c0.2-0.1,0.3-0.2,0.5,0
	c0.7,1.2,1.7,2.3,3.1,2.3c1.2,0,2.3-0.8,2.2-2.3c0-0.8-0.3-1.8-1.2-3.5c-1.1-1.9-1.4-2.9-1.4-3.6c0-1,0.6-2.5,2-3.7
	c1.1-0.9,2.2-1.5,3.1-1.5C177.4,101.6,178.1,102,178.4,102.5z M194,102.5c0.2,0.2,0.3,0.5,0.3,0.7c0,0.5-0.8,1.2-1.1,1.2
	c-0.1,0-0.3,0-0.6-0.3c-0.5-0.4-1.1-1-1.8-1c-0.9,0-1.7,0.7-1.7,2c0,0.9,0.4,2.1,1.6,3.9c0.8,1.4,1.2,2.7,1.2,3.7
	c0,1.2-0.9,2.5-2.4,3.6c-1.3,1-2.7,1.3-3.6,1.3c-1.3,0-2.2-1-2.2-2.1c0-0.4,0.2-1.2,0.5-1.5c0.2-0.1,0.3-0.2,0.5,0
	c0.7,1.2,1.7,2.3,3.1,2.3c1.2,0,2.3-0.8,2.2-2.3c0-0.8-0.3-1.8-1.2-3.5c-1.1-1.9-1.4-2.9-1.4-3.6c0-1,0.6-2.5,2-3.7
	c1.1-0.9,2.2-1.5,3.1-1.5C193,101.6,193.7,102,194,102.5z M202.2,102.6c0,0.3-0.2,1.4-0.5,2.1c-0.9,2.3-3.3,8.2-4.2,10.2
	c-0.3,0.7-0.1,0.8,0.1,0.8c0.6,0,2.3-1.6,3-2.3c0.7-0.7,0.5,0,0.2,0.5c-1.8,2.4-3.8,3.6-5.1,3.6c-0.3,0-0.8-0.6-0.8-1.1
	s0.3-1.5,1-3.2c0.7-1.6,2.3-5.8,3.7-8.8c0.2-0.5,0.1-0.7-0.1-0.7c-0.6,0-1.6,0.6-2.7,1.8c-0.7,0.7-0.7,0.1-0.3-0.4
	c1.8-2.3,3.9-3.4,5.1-3.4C202,101.6,202.1,102.2,202.2,102.6z M203.6,96.3c0,1-0.9,1.5-1.4,1.5c-0.7,0-1.1-0.6-1.1-1.3
	c0-0.8,0.7-1.6,1.4-1.6C203.4,95,203.6,96,203.6,96.3z M210.3,103.5c-0.1,0.5-0.4,1.6-1.7,4.4c-0.2,0.4,0,0.5,0.3,0.1
	c1.8-2.3,5.2-6.3,8.3-6.3c0.9,0,1.4,0.8,1.4,1.5c0,0.5-0.2,1.3-0.7,2.5c-1,2.6-2.9,7-3.5,8.4c-0.1,0.5-0.1,0.5,0.2,0.5
	c0.5,0,2.2-1.3,3.4-2.6c0.4-0.4,0.5,0.1,0,0.7c-1.6,2.5-4.8,4.8-6.4,4.8c-0.6,0-0.7-0.8-0.5-1.2c0.2-0.5,4.5-9.9,5.1-11.9
	c0.2-0.8,0.1-1.4-0.6-1.4c-1,0-2.6,0.9-5.1,4.2c-2,2.8-3.7,6.3-5.6,9.6c-0.2,0.3-0.7,0.5-1.4,0.5c-0.2,0-0.5-0.2-0.5-0.5
	s0.2-1,0.5-1.5c1.2-2.9,3.8-8.9,4.6-10.6c0.3-0.6,0.2-0.9-0.4-0.9c-0.7,0-1.6,0.5-2.4,1.7c-0.2,0.3-0.5,0.2-0.3-0.3
	c0.3-0.9,1.5-3.4,4-3.4C210.2,101.7,210.5,103,210.3,103.5z M231.3,102.5c0.2,0.2,0.4,0.5,0.4,1c0,0.6-0.8,1.1-1.1,1.1
	s-0.6-0.2-1-0.8c-0.6-0.9-0.9-1.2-1.5-1.2c-0.9,0-1.9,1.2-2.9,3.1c-1.1,2-2.2,5.5-2.2,8.2c0,1.3,0.6,2.1,1.4,2.1
	c1.1,0,2.5-0.9,3.9-2.5c0.3-0.4,0.4-0.5,0.5-0.5c0.2,0-0.1,0.7-0.3,1.1c-0.9,1.8-3,3.5-5,3.5c-1.2,0-2.9-1.1-2.9-4.2
	c0-0.7,0.2-2.8,1.2-5.2c0.9-2.1,2.5-4.4,5.1-5.7c1-0.5,1.8-0.7,2.6-0.7C230.1,101.7,230.8,102,231.3,102.5z M243.1,103.7
	c0,0.9-0.7,2.1-2.1,3.2c-1.6,1.2-3.9,2-5.7,2.1c-0.2,0-0.3,0.2-0.4,0.4c-0.4,1-0.8,3-0.8,4.3c0,0.7,0.1,2,1.7,2
	c1.1,0,2.5-0.9,3.5-2.3c0.2-0.2,0.3-0.3,0.3-0.1c0,0.1,0,0.5-0.3,1.1c-1,1.7-2.7,3.1-4.8,3.1c-1.4,0-2.7-1.6-2.7-3.9
	c0-2.8,1.5-6.1,2.7-7.8c1.7-2.3,4.2-4.1,6.2-4.1C242.5,101.6,243.1,102.7,243.1,103.7z M235.4,108.2c0,0.1,0,0.2,0.2,0.1
	c2.4-0.4,5.8-3.3,5.8-5c0-0.7-0.3-1.1-0.8-1.1C238.8,102.2,236.6,104.7,235.4,108.2z M258.5,101.8c0.9,0,0.7,0.5,0,0.6
	c-1.3,0.2-1.6,0.4-2.3,2.3c-0.6,1.6-2.9,8.5-3.2,9.6c-0.5,1.6-0.4,2.1,1.1,2.3c1,0.2,0.6,0.6-0.1,0.6s-2.1-0.1-2.6-0.1
	c-1.3,0-2.4,0.2-3.5,0.2c-0.9,0-0.9-0.4,0-0.6c1.6-0.2,1.7-0.3,2.5-2.3c0.6-1.6,2.6-7.3,3.2-9.1c0.7-2.2,0.6-2.4-0.9-2.5
	c-1.1-0.1-0.8-0.6,0-0.6C255.8,102,257,101.8,258.5,101.8z M270.4,105.8c0,3.2-1.6,7.5-4.6,11c-2.4,2.8-5.3,5.1-8,6.5
	c-1.4,0.7-2.7,0.9-3,0.9c-0.2,0-0.4,0-0.4-0.2c0-0.1,0.3-0.2,0.5-0.3c3.5-1.8,6.8-5,9.4-8.3c0.1-0.2,0.1-0.2,0-0.2
	c-0.6,0.1-1.8,0.4-2.1,0.4c-1.8,0-3-1.7-3-3.9c0-3.1,1.9-6.5,3.7-8.2c1.4-1.3,2.9-2.1,4.2-2.1C269.5,101.5,270.4,104,270.4,105.8z
	 M263.5,105.7c-1.1,2-1.9,4.8-1.9,6.5c0,2,0.9,2.7,1.8,2.7c0.8,0,1.5-0.3,1.9-1c0.9-1.4,3-5.8,3-9.3c0-1-0.1-2.7-1.3-2.7
	C266,102,264.9,103,263.5,105.7z M286.2,102.1c-1,3-2.4,6.8-3.9,11.6c0,0.1,0,0.3,0.2,0.3c1.6-0.2,3.7-0.3,4.4-0.4
	c0.2,0,0.2,0.1,0.2,0.2c0,0.4-0.5,0.9-1,1c-0.3,0.1-3.2,0.4-4.1,0.5c-0.3,0-0.3,0.2-0.4,0.3c-0.5,1.2-1.4,4.3-2.4,7.1
	c-0.1,0.2-0.7,0.6-1,0.7c-0.4,0.2-1,0.3-1.1,0.3c-0.2,0-0.3-0.3-0.3-0.5c0.3-1.1,1.4-4.3,2.5-7.5c0-0.1,0-0.2-0.1-0.2
	c-2.3,0.2-5.6,0.5-8,0.7c-0.4,0-0.5-0.1-0.5-0.2s0.1-0.3,0.3-0.5c1-1.1,2.2-2,3.3-3.1c3.4-3.3,7.8-7.4,11.2-10.7
	c0.3-0.2,0.6-0.5,0.8-0.5C286.2,101.5,286.2,101.7,286.2,102.1z M279.8,114c1.6-4,2.7-7.5,3.2-8.7c0.1-0.3,0-0.2-0.2-0.1
	c-2.1,1.8-7.3,7-9.6,9.4c-0.1,0.1-0.1,0.2,0.1,0.2c1.4-0.1,4.8-0.3,6.3-0.5C279.7,114.2,279.8,114,279.8,114z M295.4,103.1
	c-0.1,0.2,0,0.3,0.1,0.2c0.8-0.3,1.7-0.6,2.5-0.6c2.1,0,2.9,2.1,2.9,4.1c-0.1,4.1-3,8.3-5.7,9.7c-0.8,0.5-1.7,0.9-2.7,0.9
	c-2.1,0-3.3-2.2-3.3-4.6c0-4,2.5-8.8,5.6-12.1c2.4-2.5,6.6-5.7,9.9-6.6c0.2,0,0.9-0.2,0.9,0s-0.4,0.3-0.8,0.5
	C300.5,96.6,296.5,101.5,295.4,103.1z M294.5,104.6c-1.5,2.3-3.1,6-3.1,9.8c0,1.3,0.4,2.5,1.4,2.5c0.8,0,1.6-0.6,2.5-1.7
	c1.4-1.8,3.2-6,3.2-8.8c0-1,0-2.8-2-2.8C295.7,103.6,294.8,104.2,294.5,104.6z"/>
</svg>
