<?xml version="1.0" encoding="utf-8"?>
<!-- Generator: Adobe Illustrator 19.2.1, SVG Export Plug-In . SVG Version: 6.00 Build 0)  -->
<svg version="1.1" id="Layer_1" xmlns="http://www.w3.org/2000/svg" xmlns:xlink="http://www.w3.org/1999/xlink" x="0px" y="0px"
	 viewBox="0 0 385 129" style="enable-background:new 0 0 385 129;" xml:space="preserve">
<style type="text/css">
	.st0{display:none;fill:#113F51;}
	.st1{fill:#113F51;}
</style>
<path class="st0" d="M-1.9,13c-0.3-5.3-0.1-6.4-4-7.4c-1-0.2-1.5-0.5-1.5-0.8c0-0.5,0.5-0.5,1.6-0.5c1.5,0,4.1,0.5,6.8,0.5
	c2.3,0,5.7-0.4,6.8-0.4c1,0,1.4,0.2,1.4,0.5S8.7,5.5,8,5.6c-3.3,0.7-3.7,2.2-4,5.2C3.8,13,3.7,28.4,3.7,30.1c0,0.9,0.2,1.7,0.7,1.8
	C7,32.1,20.6,32,29.7,32c8.4,0,9.5-0.3,9.9-0.3c0.6-0.1,0.7-0.3,0.8-1.6c0.2-3-0.2-13.3-0.4-16.7c-0.3-5.7-0.3-7.4-4.3-7.9
	c-0.7-0.1-1.3-0.4-1.3-0.7c0-0.2,0.4-0.5,1.2-0.5c2,0,5.1,0.4,7.8,0.4c2.8,0,4.9-0.4,6.6-0.4c1,0,1.5,0.1,1.5,0.5
	c0,0.3-0.3,0.5-1.3,0.8c-4,0.8-4.2,2.5-4.2,6.7c-0.1,3.6,0,16.4,0.2,22.7c0.2,6.2,0.2,10,0.5,19.5c0.2,4.6,0.6,5.7,4.6,6.6
	c1,0.3,1.4,0.5,1.4,0.8c0,0.4-0.5,0.5-1.4,0.5c-1.3,0-6.2-0.3-8.2-0.3c-1.7,0-4.7,0.2-6.3,0.2c-1.1,0-1.7-0.2-1.7-0.6
	c0-0.3,0.4-0.5,1.5-0.7c3.1-0.6,4-1.2,4.1-5.1c0.1-4.7,0.3-17.1,0.1-18.9c-0.1-1.3-0.1-2.2-0.6-2.2c-2.9-0.2-16-0.4-24.9-0.4
	c-4.3,0-9.8-0.1-10.9-0.1c-0.3,0-0.6,0.7-0.6,2.3c0,11.3,0.5,19.6,0.9,21.4c0.4,1.9,1.8,2.6,3.6,3.1c1.3,0.3,1.6,0.6,1.6,0.9
	c0,0.4-0.6,0.5-1.6,0.5c-1.7,0-4.7-0.5-7.5-0.5c-2.3,0-5.3,0.4-6.7,0.4c-0.9,0-1.5-0.3-1.5-0.5c0-0.5,0.6-0.7,1.5-0.9
	c3.1-0.6,3.7-1.6,3.9-4.4c0.2-2.8,0.4-9.4,0.4-23.7C-1.7,28.3-1.8,16.4-1.9,13z M69.7,40.1c0,9.8-0.1,15.4,0.1,17.3
	c0.2,2.3,0.7,3.1,3.8,3.6c0.8,0.3,1.3,0.5,1.3,0.8c0,0.5-0.8,0.5-1.6,0.5c-1.1,0-4.5-0.3-6.6-0.3c-1.8,0-4.2,0.4-5.9,0.4
	c-0.7,0-1.5-0.2-1.5-0.5s0.5-0.6,1.6-0.8c2.6-0.4,3.6-1.6,3.6-5.3c0.1-3.9,0.1-23.5,0.1-26.6c0-3.5-0.1-4.9-0.2-5.7
	c-0.3-1.9-1.7-2.4-3.6-2.7c-0.6-0.1-1.3-0.5-1.3-0.7c0-0.5,0.8-0.5,1.4-0.5c2,0,3.7,0.3,6,0.3c1.8,0,5.2-0.3,6.5-0.3
	c0.5,0,1.4,0.2,1.4,0.5c0,0.4-0.5,0.6-1.6,0.8c-2.5,0.5-3.1,1.3-3.2,3.6C69.8,28,69.7,35.6,69.7,40.1z M90.5,57.7
	c-4.8-4.1-7.5-9.9-7.5-16.2c0-7,2.9-13.3,9.6-18.2c3.3-2.4,8.2-4.7,16.5-4.7c3.1,0,5.9,0.5,8.9,1.3c1.6,0.5,4,1.4,4.7,1.7
	c0.6,0.3,0.9,0.7,0.9,1.6c0,0.4,0.5,3.8,0.7,4.7c0.3,1.3,0.1,2.1-0.3,2.1c-0.5,0-0.8-0.5-1.2-1.5c-0.8-2-2.1-3.7-3.7-5.2
	c-2.6-2.2-6.2-3.6-10.9-3.6c-5.5,0-10.1,2.4-13.1,5.4c-3.6,3.4-6.3,9.1-6.3,15.7c0,9,4.5,14.7,8.2,17.4c3.2,2.5,7.7,3.9,10.9,3.9
	c3.5,0,7.5-0.7,9.5-2.6c0.6-0.5,1-2.5,1-3.6c0-1.6,0.2-5.7,0-7.8c-0.2-2.4-1.3-3-4.4-3.5c-0.9-0.1-1.4-0.5-1.4-0.7
	c0-0.4,0.6-0.6,2.1-0.6c1.9,0,3.9,0.2,5.7,0.2c1.4,0,3.8-0.3,5.3-0.3c1,0,1.8,0,1.8,0.5c0,0.4-1.1,0.6-1.6,0.8
	c-2.1,0.8-2.6,1.3-2.6,4.6c0,3,0.5,7.8,0.5,8.7s0.1,1.6-0.5,1.9c-0.6,0.2-2.1,0.9-3.9,1.5c-3.1,1.1-7.3,2.3-11.2,2.3
	C101.1,63.6,94.9,61.5,90.5,57.7z M179,19.6c1,0,1.5,0.2,1.5,0.5c0,0.4-0.7,0.7-1.6,0.9c-2.7,0.7-3.4,2.3-3.6,4
	c-0.3,2.9-0.5,17.2-0.5,23.5c0,6.2-0.2,9.1,0,12.6c0.1,1.4-0.1,2.1-0.6,2.1c-0.4,0-1.2-0.8-2.4-2.3s-20.2-24.3-29.6-35.2
	c-0.2-0.2-0.6-0.3-0.6,0c0,2.4,0,25,0,27.7c0,5.7,0.6,6.9,4.5,7.7c1,0.2,1.6,0.5,1.6,0.8c0,0.4-0.2,0.5-1.6,0.5
	c-1.2,0-3.6-0.4-5.8-0.4c-2.1,0-4.3,0.4-4.9,0.4c-0.6,0-1.7,0-1.7-0.6c0-0.4,0.9-0.6,1.6-0.7c3.1-0.5,3.7-1.8,4.1-6.2
	c0.2-3.1,0.6-23.7,0.6-27.9c0-3.6-0.4-4.4-1.1-5c-1-0.8-2.1-1-3.5-1.3c-1.1-0.2-1.5-0.5-1.5-0.7c0-0.4,0.5-0.5,1.5-0.5
	c1.7,0,4.6,0.4,7.9,0.4c0.4,0,1,0.7,1.6,1.6c4.4,5.7,21.4,25.2,27.7,32.2c0.3,0.3,0.5,0,0.5-0.3c0-2.5,0-21.4-0.1-27.2
	c-0.1-3.9-1.2-4.6-4.7-5.2c-0.8-0.1-1.5-0.5-1.5-0.8c0-0.5,0.8-0.5,1.6-0.5c1.3,0,3.8,0.3,5.5,0.3C175.8,19.9,177.3,19.6,179,19.6z
	 M196.8,40.1c0,9.8-0.1,15.4,0.1,17.3c0.2,2.3,0.7,3.1,3.8,3.6c0.8,0.3,1.3,0.5,1.3,0.8c0,0.5-0.8,0.5-1.6,0.5
	c-1.1,0-4.5-0.3-6.6-0.3c-1.8,0-4.2,0.4-5.9,0.4c-0.7,0-1.5-0.2-1.5-0.5s0.5-0.6,1.5-0.8c2.6-0.4,3.6-1.6,3.6-5.3
	c0.1-3.9,0.1-23.5,0.1-26.6c0-3.5-0.1-4.9-0.2-5.7c-0.3-1.9-1.7-2.4-3.6-2.7c-0.6-0.1-1.3-0.5-1.3-0.7c0-0.5,0.8-0.5,1.4-0.5
	c2,0,3.7,0.3,6,0.3c1.8,0,5.2-0.3,6.5-0.3c0.5,0,1.4,0.2,1.4,0.5c0,0.4-0.5,0.6-1.5,0.8c-2.5,0.5-3.1,1.3-3.2,3.6
	C196.9,28,196.8,35.6,196.8,40.1z M217.6,57.7c-4.8-4.1-7.5-9.9-7.5-16.2c0-7,2.9-13.3,9.6-18.2c3.3-2.4,8.2-4.7,16.5-4.7
	c3.1,0,5.9,0.5,8.9,1.3c1.6,0.5,4,1.4,4.7,1.7c0.6,0.3,0.9,0.7,0.9,1.6c0,0.4,0.5,3.8,0.7,4.7c0.3,1.3,0.1,2.1-0.3,2.1
	c-0.5,0-0.8-0.5-1.2-1.5c-0.8-2-2.1-3.7-3.7-5.2c-2.6-2.2-6.2-3.6-10.9-3.6c-5.5,0-10.1,2.4-13.1,5.4c-3.6,3.4-6.3,9.1-6.3,15.7
	c0,9,4.5,14.7,8.2,17.4c3.2,2.5,7.7,3.9,10.9,3.9c3.5,0,7.5-0.7,9.5-2.6c0.6-0.5,1-2.5,1-3.6c0-1.6,0.2-5.7,0-7.8
	c-0.2-2.4-1.3-3-4.4-3.5c-0.9-0.1-1.4-0.5-1.4-0.7c0-0.4,0.6-0.6,2.1-0.6c1.9,0,3.9,0.2,5.7,0.2c1.4,0,3.8-0.3,5.3-0.3
	c1,0,1.8,0,1.8,0.5c0,0.4-1.1,0.6-1.5,0.8c-2.1,0.8-2.6,1.3-2.6,4.6c0,3,0.5,7.8,0.5,8.7s0.1,1.6-0.5,1.9c-0.6,0.2-2.1,0.9-3.9,1.5
	c-3.1,1.1-7.3,2.3-11.2,2.3C228.2,63.6,222,61.5,217.6,57.7z M266.9,25.9c0-2.9-0.5-4.4-3.5-4.9c-0.9-0.2-1.6-0.5-1.6-0.8
	c0-0.4,0.9-0.5,1.6-0.5c1.2,0,3.6,0.3,5.8,0.3c1.8,0,5.4-0.3,6.3-0.3c0.8,0,1.5,0.1,1.5,0.5c0,0.5-0.9,0.8-1.5,0.9
	c-2.4,0.5-3.1,1.4-3.2,3.6c0,1.5-0.2,12.8-0.1,13.6c0.1,0.6,0.2,1.3,0.6,1.3c1.8,0,12.2,0,19.1,0c6.2,0,6.8,0,7.3-0.1
	s0.6-0.4,0.7-0.8c0.2-1,0.1-9.8,0-12.1c-0.2-3.9-0.8-4.9-3.4-5.3c-0.8-0.2-1.7-0.5-1.7-0.8c0-0.5,0.7-0.6,1.7-0.6
	c3.1,0,3.4,0.3,6.3,0.3c2.3,0,3.8-0.3,5.6-0.3c1.3,0,1.8,0.2,1.8,0.5s-0.5,0.6-1.5,0.7c-3.2,0.5-3.6,1.9-3.6,4.7
	c0,1.7-0.1,12,0,16.7c0.1,4.6,0.2,11.3,0.2,13.4c0,3.8,0.4,4.7,4,5.5c0.9,0.2,1.5,0.4,1.5,0.8c0,0.4-0.6,0.5-1.6,0.5
	c-1.2,0-5.2-0.3-6.7-0.3c-1.9,0-4.8,0.3-5.7,0.3c-1.3,0-1.8-0.2-1.8-0.5c0-0.5,0.7-0.6,1.4-0.8c2.7-0.5,3.3-0.8,3.6-3.6
	c0.1-1.2,0.1-6.7,0.1-14.1c0-0.8-0.5-1.6-0.7-1.6c-1.3-0.2-5.5-0.3-14.9-0.3c-4.7,0-10.8,0-11.8,0c-0.4,0-0.6,0.5-0.6,1.4
	c0,14.3,0.2,15.1,0.4,15.9c0.3,1.4,1.1,1.7,3.2,2.3c1,0.3,1.6,0.5,1.6,0.9c0,0.5-1.2,0.5-1.6,0.5c-1.4,0-4.3-0.3-6.5-0.3
	c-1.9,0-4.5,0.3-5.6,0.3c-0.7,0-1.8-0.1-1.8-0.6c0-0.3,0.9-0.6,1.6-0.7c3.1-0.6,3.2-1.5,3.4-3.4c0.2-1.9,0.3-6.4,0.3-17V25.9H266.9z
	 M348.4,19.9c3.3,0,4.6-0.2,5.7-0.6c0.5-0.3,0.9-0.5,1.1-0.4c0.2,0.2,0.2,0.5,0.1,0.8c-0.3,0.5-0.5,3.6-0.5,6.7c0,1-0.2,1.7-0.5,1.7
	s-0.5-0.6-0.6-1.1c-0.2-0.9-0.9-3.5-1.4-4.1c-0.5-0.7-0.7-1.1-3-1.1c-1.6,0-9.2,0-10.7,0c-0.4,0-0.5,0.8-0.5,1.2l-0.2,24
	c0,4,0,8.8,0.3,10.9c0.3,2,1.3,2.7,3.6,3.2c1,0.2,1.6,0.5,1.6,0.9s-1.1,0.5-1.7,0.5c-2.2,0-3.7-0.4-6.5-0.4c-3.7,0-5.4,0.4-6.5,0.4
	c-1.3,0-1.7-0.3-1.7-0.5c0-0.4,0.6-0.6,1.6-0.8c3.4-0.5,3.8-1.3,3.9-4.7c0.3-6.8,0.5-32.7,0.5-33.5c0-0.4-0.1-1.1-0.5-1.2
	c-0.6,0-2.6,0-5.7,0c-3,0-5.2,0.1-6.1,0.2c-1.4,0.2-2.5,1.1-3.2,4.7c-0.2,0.8-0.5,1.3-0.7,1.3c-0.4,0-0.5-0.5-0.5-1.4
	c0-1.5,0.7-4.6,0.7-6.9c0-0.5,0.1-0.8,0.3-1c0.3-0.2,0.5,0,0.8,0.4c0.3,0.3,1.3,0.5,2.3,0.5c1,0.1,8.4,0.3,15.9,0.3L348.4,19.9
	L348.4,19.9z M367.6,6.3c0,5.8-6.5,8.4-7.8,8.4c-0.5,0-0.8-0.2-0.8-0.5c0-0.1,0.4-0.5,0.9-0.7c2.9-1.5,4.7-3.6,4.7-5.9
	c0-1.7-1.1-2.8-3.6-3.4c-0.6-0.2-1.7-0.6-1.7-1.7c0-1.2,1.1-2.3,2.6-2.3C365.5,0.2,367.6,3.4,367.6,6.3z M373.1,27.8
	c0,3.6,2.3,6.1,4.6,7.8c2.6,1.7,5,3.3,7.7,4.8c2.7,1.8,7.2,5,7.2,10.7c0,7.8-7.1,12.5-14.4,12.5c-3.3,0-7.3-0.8-9.7-2
	c-0.9-0.3-1.1-1.5-1.4-2.6c-0.1-1.2-0.4-2.6-0.5-4.9c-0.1-0.8,0-1.6,0.4-1.6s0.8,0.6,1.2,1.7c0.7,2.5,1.8,4.4,3.5,5.7
	c2.2,1.7,5.1,2.3,6.8,2.3c5.7,0,8.9-3.6,8.9-8.4c0-4.9-2.7-7.4-8.8-11c-5.2-3.1-9.9-6.8-9.9-12.9c0-3.3,1.6-6.7,4.4-8.7
	c2.6-1.9,6.1-2.7,9.2-2.7c3.6,0,6.6,1.1,7.5,1.5c0.5,0.2,0.8,0.5,0.9,0.9c0,1.9,0.4,4.1,0.5,5.1c0.2,1,0.1,1.6-0.3,1.6
	s-0.6-0.5-0.9-1.4c-0.7-2-1.6-3.5-3-4.5c-1.6-1.4-3.8-2-5.9-2C377.5,19.8,373.1,21.7,373.1,27.8z M108.4,89.3c0.2,0.1,0.4,0.2,0.6,0
	c0.2-0.1,0.3-0.3,0.5-0.5c0.3-0.3,0.7-0.2,0.3,0.8c-1.1,3.1-6.6,21.5-7.5,24.6c-0.2,0.6,0.1,0.9,0.3,0.9c0.9,0,2.3-1.2,3.2-2.3
	c0.1-0.2,0.3-0.2,0.3,0s-0.2,0.5-0.4,0.8c-0.9,1.4-3.2,3.7-5,3.7c-0.5,0-0.9-0.9-0.9-1.3c0-0.3,0.1-0.9,0.4-2
	c0.9-3.9,5.7-19.1,6.6-22.9c0.2-0.5,0.3-0.9,0-1.4c-0.4-0.5-1.1-0.8-1.7-0.8c-2.8,0-5.1,4.1-7.4,12.8c0,0.1,0,0.3,0.1,0.3l3.1-0.1
	c0.2,0,0.5,0.1,0.5,0.2c0,0.2-0.5,0.5-0.9,0.5c-0.7,0.1-1.9,0.2-3,0.2c-0.2,0-0.2,0.2-0.3,0.3c-0.8,3-3.5,13.8-4.6,17.8
	c-1.1,3.6-4,7.8-8,7.8c-1.1,0-2.5-1-2.5-1.7c0-0.3,0.3-1.1,0.8-1.4c0.2-0.1,0.7-0.1,0.9,0.2c0.9,0.9,1.8,1.6,2.7,1.6
	c1.6,0,2.3-2,3.2-5.1c1.4-5,4.1-16.2,4.8-19.1c0-0.2,0-0.4-0.1-0.4h-2.2c-0.2,0-0.5-0.1-0.5-0.2c0-0.2,0.6-0.5,0.8-0.5
	c0.6,0,1.8-0.1,2.2-0.2c0.1,0,0.2-0.2,0.3-0.3c1.7-6.1,3.6-9.1,5.2-10.7c1.7-1.8,3.4-2.8,5.8-2.8C106.9,88.6,107.8,89,108.4,89.3z
	 M119.9,106.5c0,4.2-2.9,8.3-4.7,9.6c-1.6,1.2-2.8,1.5-3.9,1.5c-1.4,0-3-1.3-3-4.5c0-2.2,1-5.7,2.9-8c1.9-2.4,3.9-3.4,5.6-3.4
	C119.2,101.6,119.9,104.5,119.9,106.5z M113,105.7c-1.6,2.5-2.8,6-2.8,8.8c0,1.5,0.5,2.3,1.3,2.3c0.7,0,1.6-0.6,2.6-1.9
	c1.9-2.5,3.8-7.4,3.8-10.2c0-1,0-2.6-1.1-2.6C115.8,102.2,114.6,103.3,113,105.7z M127.8,103.5c0,0.9-1.3,4-1.5,4.9
	c-0.1,0.5,0.1,0.6,0.3,0.2c0.9-1.5,1.9-3.1,3-4.4c1.1-1.5,2.5-2.5,3.6-2.5c0.9,0,1.3,0.8,1.3,1.5c0,1.5-1.3,2.4-1.8,2.4
	c-0.3,0-0.5-0.1-0.5-0.5c0-1.1-0.1-1.8-0.7-1.8c-0.7,0-1.9,1.4-3.9,5.4c-1.2,2.4-2.7,5.5-4,8.2c-0.2,0.6-0.6,0.8-0.7,0.8
	c-0.3,0-0.8-0.1-1-0.5c-0.1-0.1-0.1-0.3,0-0.6c0.1-0.6,2.1-6.3,3.9-11.6c0.2-0.7,0.1-1-0.2-1c-0.9,0-2.1,1.4-2.7,2.1
	c-0.2,0.2-0.4,0-0.4-0.1c0-0.9,1.7-3.8,4.1-3.8C127.4,102,127.8,102.5,127.8,103.5z M141.7,102.6c0,0.3-0.2,1.4-0.5,2.1
	c-0.9,2.3-3.3,8.2-4.2,10.2c-0.3,0.7-0.1,0.8,0.1,0.8c0.6,0,2.3-1.6,3-2.3c0.7-0.7,0.5,0,0.2,0.5c-1.8,2.4-3.8,3.6-5.1,3.6
	c-0.3,0-0.8-0.6-0.8-1.1s0.3-1.5,1-3.2c0.7-1.6,2.3-5.8,3.7-8.8c0.2-0.5,0.1-0.7-0.1-0.7c-0.6,0-1.6,0.6-2.7,1.8
	c-0.7,0.7-0.7,0.1-0.3-0.4c1.8-2.3,3.9-3.4,5.1-3.4C141.5,101.6,141.7,102.2,141.7,102.6z M143.1,96.3c0,1-0.9,1.5-1.4,1.5
	c-0.7,0-1.1-0.6-1.1-1.3c0-0.8,0.7-1.6,1.4-1.6C142.9,95,143.1,96,143.1,96.3z M152.2,102.5c0.2,0.2,0.3,0.5,0.3,0.7
	c0,0.5-0.8,1.2-1.1,1.2c-0.1,0-0.3,0-0.6-0.3c-0.5-0.4-1.1-1-1.8-1c-0.9,0-1.7,0.7-1.7,2c0,0.9,0.4,2.1,1.6,3.9
	c0.8,1.4,1.2,2.7,1.2,3.7c0,1.2-0.9,2.5-2.4,3.6c-1.3,1-2.7,1.3-3.6,1.3c-1.3,0-2.2-1-2.2-2.1c0-0.4,0.2-1.2,0.5-1.5
	c0.2-0.1,0.3-0.2,0.5,0c0.7,1.2,1.7,2.3,3.1,2.3c1.2,0,2.3-0.8,2.2-2.3c0-0.8-0.3-1.8-1.2-3.5c-1.1-1.9-1.4-2.9-1.4-3.6
	c0-1,0.6-2.5,2-3.7c1.1-0.9,2.2-1.5,3.1-1.5C151.2,101.6,151.9,102,152.2,102.5z M159.7,103.2c-0.2,0-0.3,0.3-0.4,0.6
	c-0.5,1.4-2.4,6.7-3.5,10.3c-0.1,0.3,0,0.7,0.2,0.7c0.5,0,1.7-0.7,3.2-2.3c0.7-0.7,0.5,0,0.2,0.5c-1.6,2.3-4.4,4.6-5.7,4.6
	c-0.3,0-0.8-0.4-0.8-1c0-0.5,0.2-1.3,0.5-1.9c0.5-1.4,2.4-7.2,3.7-10.8c0-0.2,0.1-0.5-0.1-0.5c-0.6,0-1.2,0-1.6,0
	c-0.3,0-0.3-0.1-0.3-0.2c0-0.2,0.4-0.5,0.5-0.5c0.2,0,0.8-0.1,1.8-0.2c0.1,0,0.2-0.2,0.3-0.3c0.4-0.8,1.1-2.3,1.5-3
	c0.3-0.4,1.1-0.8,1.7-0.8c0.2,0,0.2,0.3,0.1,0.7c-0.3,1.1-0.7,2.3-0.9,3c0,0.1,0,0.2,0,0.2c0.8,0,1.9,0,3.1,0c0.1,0,0.3,0.1,0.3,0.2
	s-0.2,0.5-0.9,0.6C161.6,103.1,160,103.2,159.7,103.2z M170.9,102.5c0.2,0.2,0.3,0.5,0.3,0.7c0,0.5-0.8,1.2-1.1,1.2
	c-0.1,0-0.3,0-0.6-0.3c-0.5-0.4-1.1-1-1.8-1c-0.9,0-1.7,0.7-1.7,2c0,0.9,0.4,2.1,1.6,3.9c0.8,1.4,1.2,2.7,1.2,3.7
	c0,1.2-0.9,2.5-2.4,3.6c-1.3,1-2.7,1.3-3.6,1.3c-1.3,0-2.2-1-2.2-2.1c0-0.4,0.2-1.2,0.5-1.5c0.2-0.1,0.3-0.2,0.5,0
	c0.7,1.2,1.7,2.3,3.1,2.3c1.2,0,2.3-0.8,2.2-2.3c0-0.8-0.3-1.8-1.2-3.5c-1.1-1.9-1.4-2.9-1.4-3.6c0-1,0.6-2.5,2-3.7
	c1.1-0.9,2.2-1.5,3.1-1.5C169.9,101.6,170.6,102,170.9,102.5z M186.5,102.5c0.2,0.2,0.3,0.5,0.3,0.7c0,0.5-0.8,1.2-1.1,1.2
	c-0.1,0-0.3,0-0.6-0.3c-0.5-0.4-1.1-1-1.8-1c-0.9,0-1.7,0.7-1.7,2c0,0.9,0.4,2.1,1.6,3.9c0.8,1.4,1.2,2.7,1.2,3.7
	c0,1.2-0.9,2.5-2.4,3.6c-1.3,1-2.7,1.3-3.6,1.3c-1.3,0-2.2-1-2.2-2.1c0-0.4,0.2-1.2,0.5-1.5c0.2-0.1,0.3-0.2,0.5,0
	c0.7,1.2,1.7,2.3,3.1,2.3c1.2,0,2.3-0.8,2.2-2.3c0-0.8-0.3-1.8-1.2-3.5c-1.1-1.9-1.4-2.9-1.4-3.6c0-1,0.6-2.5,2-3.7
	c1.1-0.9,2.2-1.5,3.1-1.5C185.5,101.6,186.2,102,186.5,102.5z M194.7,102.6c0,0.3-0.2,1.4-0.5,2.1c-0.9,2.3-3.3,8.2-4.2,10.2
	c-0.3,0.7-0.1,0.8,0.1,0.8c0.6,0,2.3-1.6,3-2.3c0.7-0.7,0.5,0,0.2,0.5c-1.8,2.4-3.8,3.6-5.1,3.6c-0.3,0-0.8-0.6-0.8-1.1
	s0.3-1.5,1-3.2c0.7-1.6,2.3-5.8,3.7-8.8c0.2-0.5,0.1-0.7-0.1-0.7c-0.6,0-1.6,0.6-2.7,1.8c-0.7,0.7-0.7,0.1-0.3-0.4
	c1.8-2.3,3.9-3.4,5.1-3.4C194.5,101.6,194.6,102.2,194.7,102.6z M196.1,96.3c0,1-0.9,1.5-1.4,1.5c-0.7,0-1.1-0.6-1.1-1.3
	c0-0.8,0.7-1.6,1.4-1.6C195.9,95,196.1,96,196.1,96.3z M202.8,103.5c-0.1,0.5-0.4,1.6-1.7,4.4c-0.2,0.4,0,0.5,0.3,0.1
	c1.8-2.3,5.2-6.3,8.3-6.3c0.9,0,1.4,0.8,1.4,1.5c0,0.5-0.2,1.3-0.7,2.5c-1,2.6-2.9,7-3.5,8.4c-0.1,0.5-0.1,0.5,0.2,0.5
	c0.5,0,2.2-1.3,3.4-2.6c0.4-0.4,0.5,0.1,0,0.7c-1.6,2.5-4.8,4.8-6.4,4.8c-0.6,0-0.7-0.8-0.5-1.2c0.2-0.5,4.5-9.9,5.1-11.9
	c0.2-0.8,0.1-1.4-0.6-1.4c-1,0-2.6,0.9-5.1,4.2c-2,2.8-3.7,6.3-5.6,9.6c-0.2,0.3-0.7,0.5-1.4,0.5c-0.2,0-0.5-0.2-0.5-0.5
	s0.2-1,0.5-1.5c1.2-2.9,3.8-8.9,4.6-10.6c0.3-0.6,0.2-0.9-0.4-0.9c-0.7,0-1.6,0.5-2.4,1.7c-0.2,0.3-0.5,0.2-0.3-0.3
	c0.3-0.9,1.5-3.4,4-3.4C202.7,101.7,203,103,202.8,103.5z M223.8,102.5c0.2,0.2,0.4,0.5,0.4,1c0,0.6-0.8,1.1-1.1,1.1s-0.6-0.2-1-0.8
	c-0.6-0.9-0.9-1.2-1.5-1.2c-0.9,0-1.9,1.2-2.9,3.1c-1.1,2-2.2,5.5-2.2,8.2c0,1.3,0.6,2.1,1.4,2.1c1.1,0,2.5-0.9,3.9-2.5
	c0.3-0.4,0.4-0.5,0.5-0.5c0.2,0-0.1,0.7-0.3,1.1c-0.9,1.8-3,3.5-5,3.5c-1.2,0-2.9-1.1-2.9-4.2c0-0.7,0.2-2.8,1.2-5.2
	c0.9-2.1,2.5-4.4,5.1-5.7c1-0.5,1.8-0.7,2.6-0.7C222.6,101.7,223.3,102,223.8,102.5z M235.6,103.7c0,0.9-0.7,2.1-2.1,3.2
	c-1.6,1.2-3.9,2-5.7,2.1c-0.2,0-0.3,0.2-0.4,0.4c-0.4,1-0.8,3-0.8,4.3c0,0.7,0.1,2,1.7,2c1.1,0,2.5-0.9,3.5-2.3
	c0.2-0.2,0.3-0.3,0.3-0.1c0,0.1,0,0.5-0.3,1.1c-1,1.7-2.7,3.1-4.8,3.1c-1.4,0-2.7-1.6-2.7-3.9c0-2.8,1.5-6.1,2.7-7.8
	c1.7-2.3,4.2-4.1,6.2-4.1C235,101.6,235.6,102.7,235.6,103.7z M227.9,108.2c0,0.1,0,0.2,0.2,0.1c2.4-0.4,5.8-3.3,5.8-5
	c0-0.7-0.3-1.1-0.8-1.1C231.3,102.2,229.1,104.7,227.9,108.2z M251,101.8c0.9,0,0.7,0.5,0,0.6c-1.3,0.2-1.6,0.4-2.3,2.3
	c-0.6,1.6-2.9,8.5-3.2,9.6c-0.5,1.6-0.4,2.1,1.1,2.3c1,0.2,0.6,0.6-0.1,0.6s-2.1-0.1-2.6-0.1c-1.3,0-2.4,0.2-3.5,0.2
	c-0.9,0-0.9-0.4,0-0.6c1.6-0.2,1.7-0.3,2.5-2.3c0.6-1.6,2.6-7.3,3.2-9.1c0.7-2.2,0.6-2.4-0.9-2.5c-1.1-0.1-0.8-0.6,0-0.6
	C248.3,102,249.5,101.8,251,101.8z M262.9,105.8c0,3.2-1.6,7.5-4.6,11c-2.4,2.8-5.3,5.1-8,6.5c-1.4,0.7-2.7,0.9-3,0.9
	c-0.2,0-0.4,0-0.4-0.2c0-0.1,0.3-0.2,0.5-0.3c3.5-1.8,6.8-5,9.4-8.3c0.1-0.2,0.1-0.2,0-0.2c-0.6,0.1-1.8,0.4-2.1,0.4
	c-1.8,0-3-1.7-3-3.9c0-3.1,1.9-6.5,3.7-8.2c1.4-1.3,2.9-2.1,4.2-2.1C262,101.5,262.9,104,262.9,105.8z M256,105.7
	c-1.1,2-1.9,4.8-1.9,6.5c0,2,0.9,2.7,1.8,2.7c0.8,0,1.5-0.3,1.9-1c0.9-1.4,3-5.8,3-9.3c0-1-0.1-2.7-1.3-2.7
	C258.5,102,257.4,103,256,105.7z M278.7,102.1c-1,3-2.4,6.8-3.9,11.6c0,0.1,0,0.3,0.2,0.3c1.6-0.2,3.7-0.3,4.4-0.4
	c0.2,0,0.2,0.1,0.2,0.2c0,0.4-0.5,0.9-1,1c-0.3,0.1-3.2,0.4-4.1,0.5c-0.3,0-0.3,0.2-0.4,0.3c-0.5,1.2-1.4,4.3-2.4,7.1
	c-0.1,0.2-0.7,0.6-1,0.7c-0.4,0.2-1,0.3-1.1,0.3c-0.2,0-0.3-0.3-0.3-0.5c0.3-1.1,1.4-4.3,2.5-7.5c0-0.1,0-0.2-0.1-0.2
	c-2.3,0.2-5.6,0.5-8,0.7c-0.4,0-0.5-0.1-0.5-0.2s0.1-0.3,0.3-0.5c1-1.1,2.2-2,3.3-3.1c3.4-3.3,7.8-7.4,11.2-10.7
	c0.3-0.2,0.6-0.5,0.8-0.5C278.7,101.5,278.7,101.7,278.7,102.1z M272.3,114c1.6-4,2.7-7.5,3.2-8.7c0.1-0.3,0-0.2-0.2-0.1
	c-2.1,1.8-7.3,7-9.6,9.4c-0.1,0.1-0.1,0.2,0.1,0.2c1.4-0.1,4.8-0.3,6.3-0.5C272.2,114.2,272.3,114,272.3,114z M287.9,103.1
	c-0.1,0.2,0,0.3,0.1,0.2c0.8-0.3,1.7-0.6,2.5-0.6c2.1,0,2.9,2.1,2.9,4.1c-0.1,4.1-3,8.3-5.7,9.7c-0.8,0.5-1.7,0.9-2.7,0.9
	c-2.1,0-3.3-2.2-3.3-4.6c0-4,2.5-8.8,5.6-12.1c2.4-2.5,6.6-5.7,9.9-6.6c0.2,0,0.9-0.2,0.9,0s-0.4,0.3-0.8,0.5
	C293,96.6,289,101.5,287.9,103.1z M287,104.6c-1.5,2.3-3.1,6-3.1,9.8c0,1.3,0.4,2.5,1.4,2.5c0.8,0,1.6-0.6,2.5-1.7
	c1.4-1.8,3.2-6,3.2-8.8c0-1,0-2.8-2-2.8C288.2,103.6,287.3,104.2,287,104.6z"/>
<g>
	<path class="st1" d="M5,1.1l0.4,0.4v19h28.3v-19L34,1.1h4.7l0.4,0.4v48.4l-0.4,0.4H34l-0.4-0.4V25.9H5.4v23.9L5,50.2H0.4L0,49.8
		V1.4l0.4-0.4H5z"/>
	<path class="st1" d="M56.2,1.1l0.4,0.4v48.4l-0.4,0.4h-4.7l-0.4-0.4V1.4l0.4-0.4H56.2z"/>
	<path class="st1" d="M110.3,11.1c-4.7-4.1-11.2-5.4-17.2-5.4c-11.8,0-20.5,8.8-20.5,19.9c0,11.3,9,19.9,20.8,19.9
		c4.1,0,8.8-1,12.5-3.2V28.7H94.9l-0.4-0.4v-4.8l0.4-0.4H111l0.4,0.4v22c-5.3,3.9-11.6,5.6-17.9,5.6c-15.1,0-27-11.2-27-25.6
		C66.5,11.6,78,0,93.1,0c6.7,0,13,1.1,17.5,4.6v6.2L110.3,11.1z"/>
	<path class="st1" d="M128,1.1l0.7,0.4l30.4,40.1V1.4l0.4-0.4h4.7l0.4,0.4v48.4l-0.4,0.4h-5l-0.7-0.4L128,9.7v40.1l-0.4,0.4H123
		l-0.4-0.4V1.4l0.4-0.4H128z"/>
	<path class="st1" d="M181.6,1.1l0.4,0.4v48.4l-0.4,0.4h-4.7l-0.4-0.4V1.4l0.4-0.4H181.6z"/>
	<path class="st1" d="M235.7,11.1c-4.7-4.1-11.2-5.4-17.2-5.4c-11.8,0-20.5,8.8-20.5,19.9c0,11.3,9,19.9,20.8,19.9
		c4.1,0,8.8-1,12.5-3.2V28.7h-11.1l-0.4-0.4v-4.8l0.4-0.4h16.1l0.4,0.4v22c-5.3,3.9-11.6,5.6-17.9,5.6c-15.1,0-27-11.2-27-25.6
		c0-14,11.6-25.6,26.6-25.6c6.7,0,13,1.1,17.5,4.6v6.2L235.7,11.1z"/>
	<path class="st1" d="M253.1,1.1l0.4,0.4v19h28.3v-19l0.4-0.4h4.7l0.4,0.4v48.4l-0.4,0.4h-4.7l-0.4-0.4V25.9h-28.3v23.9l-0.4,0.4
		h-4.7l-0.4-0.4V1.4l0.4-0.4H253.1z"/>
	<path class="st1" d="M334.2,1.1l0.4,0.4v4.7l-0.4,0.3h-16.5v43.3l-0.4,0.4h-4.8l-0.4-0.4V6.5h-16.5l-0.4-0.3V1.4l0.4-0.4H334.2z"/>
	<path class="st1" d="M348.5,1.1l0.4,0.4v5.9c0,6.7-3.9,9.8-9.7,9.8v-0.4c3.2-1.5,4.3-3.7,4.3-9.1V1.4l0.4-0.4H348.5z"/>
	<path class="st1" d="M376.5,10.2c-2.2-2.9-4.2-4.6-7.6-4.6c-3.6,0-6.4,2.7-6.4,6.5c0,8.3,22.4,8.1,22.4,23.6
		c0,8.5-6.9,15.4-15.4,15.4c-7,0-12.3-3.9-14.7-10.2l3.9-3.1h0.7c2.1,5,5.5,7.6,10.1,7.6c5.3,0,9.2-4.1,9.2-9.7
		c0-10.7-22.5-10.2-22.5-23.6c0-6.7,5.5-12.2,12.6-12.2c5.6,0,9.8,3.2,12.3,7.4l-4,2.9H376.5z"/>
	<path class="st1" d="M83.6,77.9c0.3,0.2,0.5,0.3,0.7,0.1c0.2-0.2,0.4-0.4,0.6-0.6c0.4-0.4,0.9-0.3,0.4,1.1
		c-1.4,3.9-8.4,27.6-9.6,31.6c-0.2,0.7,0.1,1.2,0.4,1.2c1.2,0,2.9-1.6,4.1-2.9c0.2-0.2,0.4-0.2,0.4,0.1s-0.2,0.6-0.5,1.1
		c-1.1,1.8-4,4.7-6.4,4.7c-0.7,0-1.2-1.1-1.2-1.6c0-0.4,0.2-1.2,0.5-2.5c1.2-5,7.3-24.5,8.5-29.3c0.2-0.6,0.4-1.2-0.1-1.8
		c-0.5-0.6-1.4-1-2.2-1c-3.6,0-6.5,5.3-9.5,16.4c-0.1,0.1,0,0.4,0.2,0.4l4-0.1c0.3,0,0.6,0.1,0.6,0.3c0,0.3-0.6,0.6-1.2,0.7
		c-0.8,0.1-2.5,0.3-3.8,0.3c-0.2,0.1-0.3,0.3-0.4,0.4c-1.1,3.9-4.5,17.7-5.9,22.9c-1.4,4.6-5.2,9.9-10.2,9.9c-1.4,0-3.2-1.3-3.2-2.2
		c0-0.4,0.4-1.4,1.1-1.8c0.3-0.2,0.8-0.2,1.2,0.3c1.2,1.2,2.4,2.1,3.5,2.1c2.1,0,3-2.5,4.1-6.5c1.7-6.5,5.2-20.8,6.2-24.5
		c0.1-0.3,0.1-0.5-0.2-0.5H63c-0.3,0-0.6-0.1-0.6-0.3c0-0.3,0.7-0.6,1.1-0.6c0.7-0.1,2.4-0.2,2.8-0.2c0.1,0,0.3-0.3,0.4-0.4
		c2.2-7.8,4.6-11.6,6.7-13.7c2.2-2.4,4.3-3.6,7.4-3.6C81.6,77,82.8,77.4,83.6,77.9z"/>
	<path class="st1" d="M98.3,99.8c0,5.4-3.7,10.6-6,12.3c-2,1.5-3.6,1.9-5,1.9c-1.8,0-3.9-1.7-3.9-5.8c0-2.8,1.3-7.3,3.7-10.2
		c2.4-3.1,5-4.3,7.2-4.3C97.5,93.7,98.3,97.4,98.3,99.8z M89.5,99c-2.1,3.3-3.6,7.7-3.6,11.3c0,1.9,0.6,3,1.6,3c0.8,0,2-0.7,3.3-2.4
		c2.4-3.2,4.9-9.5,4.9-13c0-1.3-0.1-3.4-1.4-3.4C93.1,94.4,91.5,95.9,89.5,99z"/>
	<path class="st1" d="M108.5,96c-0.1,1.2-1.6,5.2-1.9,6.3c-0.2,0.6,0.1,0.7,0.4,0.3c1.2-1.9,2.4-4,3.8-5.7c1.5-1.9,3.2-3.2,4.6-3.2
		c1.2,0,1.7,1.1,1.7,1.9c0,1.9-1.7,3.1-2.3,3.1c-0.4,0-0.6-0.2-0.6-0.7c0-1.5-0.1-2.3-0.8-2.3c-0.9,0-2.4,1.8-5,6.9
		c-1.6,3.1-3.5,7-5.1,10.5c-0.3,0.7-0.7,1-0.9,1c-0.4,0-1-0.1-1.3-0.6c-0.1-0.2-0.2-0.4-0.1-0.8c0.2-0.7,2.7-8,5-14.9
		c0.3-0.9,0.2-1.3-0.2-1.3c-1.1,0-2.6,1.8-3.5,2.6c-0.3,0.3-0.5,0.1-0.5-0.2c0.1-1.2,2.2-4.9,5.3-4.9C107.9,94,108.5,94.9,108.5,96z
		"/>
	<path class="st1" d="M126.3,94.9c0.1,0.4-0.3,1.8-0.7,2.7c-1.2,2.9-4.3,10.5-5.4,13.1c-0.4,0.8-0.2,1,0.1,1c0.7,0,3-2.1,3.8-2.9
		c0.8-0.9,0.6,0,0.3,0.6c-2.3,3.1-4.9,4.6-6.5,4.6c-0.4,0-1-0.7-1-1.5c-0.1-0.6,0.4-1.9,1.3-4c0.9-2.1,3-7.5,4.7-11.3
		c0.3-0.6,0.2-0.9-0.1-0.9c-0.8,0-2,0.8-3.5,2.3c-0.8,0.8-0.8,0.1-0.4-0.5c2.3-2.9,5-4.4,6.5-4.4C126.1,93.7,126.3,94.4,126.3,94.9z
		 M128.1,86.9c0,1.3-1.2,1.9-1.8,1.9c-0.9,0-1.5-0.7-1.5-1.6c0-1,0.9-2,1.8-2C127.9,85.2,128.1,86.4,128.1,86.9z"/>
	<path class="st1" d="M139.7,94.7c0.3,0.3,0.4,0.6,0.4,0.9c0,0.7-1,1.5-1.4,1.5c-0.2,0-0.4-0.1-0.7-0.4c-0.6-0.5-1.5-1.3-2.3-1.3
		c-1.2,0-2.2,0.9-2.2,2.5c0,1.2,0.5,2.6,2,5c1,1.8,1.6,3.5,1.5,4.7c0,1.6-1.1,3.2-3,4.6c-1.7,1.3-3.4,1.7-4.6,1.7
		c-1.7,0-2.8-1.3-2.8-2.6c-0.1-0.5,0.2-1.6,0.6-1.9c0.2-0.2,0.4-0.2,0.6,0.1c0.8,1.5,2.2,2.9,3.9,2.9c1.6,0,2.9-1.1,2.8-2.9
		c0-1-0.4-2.4-1.6-4.5c-1.4-2.4-1.8-3.7-1.8-4.6c0-1.3,0.7-3.2,2.5-4.7c1.4-1.2,2.8-1.9,4-1.9C138.5,93.7,139.3,94.1,139.7,94.7z"/>
	<path class="st1" d="M149.3,95.7c-0.2,0-0.4,0.4-0.5,0.7c-0.7,1.7-3,8.6-4.5,13.3c-0.1,0.4-0.1,0.8,0.3,0.8c0.6,0,2.2-0.9,4.1-3
		c0.9-0.9,0.6,0.1,0.3,0.6c-2,3-5.6,5.8-7.3,5.8c-0.4,0-1.1-0.5-1.1-1.3c0-0.7,0.3-1.7,0.6-2.5c0.6-1.8,3.1-9.3,4.7-13.9
		c0.1-0.2,0.1-0.6-0.2-0.6c-0.8-0.1-1.5,0-2.1-0.1c-0.4,0-0.4-0.2-0.4-0.2c0-0.3,0.5-0.6,0.7-0.6c0.3-0.1,1-0.2,2.3-0.2
		c0.2,0,0.3-0.3,0.4-0.4c0.5-1,1.4-2.9,1.9-3.8c0.4-0.5,1.4-1.1,2.2-1.1c0.3,0,0.3,0.4,0.2,0.8c-0.4,1.4-0.8,2.9-1.2,3.9
		c-0.1,0.1,0,0.3,0.1,0.3c1,0,2.5-0.1,3.9-0.1c0.1,0,0.4,0.1,0.4,0.2c0,0.1-0.3,0.6-1.1,0.7C151.7,95.5,149.7,95.7,149.3,95.7z"/>
	<path class="st1" d="M163.7,94.7c0.3,0.3,0.4,0.6,0.4,0.9c0,0.7-1,1.5-1.4,1.5c-0.2,0-0.4-0.1-0.7-0.4c-0.6-0.5-1.5-1.3-2.3-1.3
		c-1.2,0-2.2,0.9-2.2,2.5c0,1.2,0.5,2.6,2,5c1,1.8,1.6,3.5,1.5,4.7c0,1.6-1.1,3.2-3,4.6c-1.7,1.3-3.4,1.7-4.6,1.7
		c-1.7,0-2.8-1.3-2.8-2.6c-0.1-0.5,0.2-1.6,0.6-1.9c0.2-0.2,0.4-0.2,0.6,0.1c0.8,1.5,2.2,2.9,3.9,2.9c1.6,0,2.9-1.1,2.8-2.9
		c0-1-0.4-2.4-1.6-4.5c-1.4-2.4-1.8-3.7-1.8-4.6c0-1.3,0.7-3.2,2.5-4.7c1.4-1.2,2.8-1.9,4-1.9C162.5,93.7,163.3,94.1,163.7,94.7z"/>
	<path class="st1" d="M183.7,94.7c0.3,0.3,0.4,0.6,0.4,0.9c0,0.7-1,1.5-1.4,1.5c-0.2,0-0.4-0.1-0.7-0.4c-0.6-0.5-1.5-1.3-2.3-1.3
		c-1.2,0-2.2,0.9-2.2,2.5c0,1.2,0.5,2.6,2,5c1,1.8,1.6,3.5,1.5,4.7c0,1.6-1.1,3.2-3,4.6c-1.7,1.3-3.4,1.7-4.6,1.7
		c-1.7,0-2.8-1.3-2.8-2.6c-0.1-0.5,0.2-1.6,0.6-1.9c0.2-0.2,0.4-0.2,0.6,0.1c0.8,1.5,2.2,2.9,3.9,2.9c1.6,0,2.9-1.1,2.8-2.9
		c0-1-0.4-2.4-1.6-4.5c-1.4-2.4-1.8-3.7-1.8-4.6c0-1.3,0.7-3.2,2.5-4.7c1.4-1.2,2.8-1.9,4-1.9C182.4,93.7,183.3,94.1,183.7,94.7z"/>
	<path class="st1" d="M194.2,94.9c0.1,0.4-0.3,1.8-0.7,2.7c-1.2,2.9-4.3,10.5-5.4,13.1c-0.4,0.8-0.2,1,0.1,1c0.7,0,3-2.1,3.8-2.9
		c0.8-0.9,0.6,0,0.3,0.6c-2.3,3.1-4.9,4.6-6.5,4.6c-0.4,0-1-0.7-1-1.5c-0.1-0.6,0.4-1.9,1.3-4c0.9-2.1,3-7.5,4.7-11.3
		c0.3-0.6,0.2-0.9-0.1-0.9c-0.8,0-2,0.8-3.5,2.3c-0.8,0.8-0.8,0.1-0.4-0.5c2.3-2.9,5-4.4,6.5-4.4C193.9,93.7,194.1,94.4,194.2,94.9z
		 M195.9,86.9c0,1.3-1.2,1.9-1.8,1.9c-0.9,0-1.5-0.7-1.5-1.6c0-1,0.9-2,1.8-2C195.7,85.2,195.9,86.4,195.9,86.9z"/>
	<path class="st1" d="M204.6,96c-0.2,0.6-0.5,2.1-2.2,5.7c-0.2,0.5,0.1,0.6,0.4,0.2c2.3-2.9,6.7-8,10.7-8c1.2,0,1.7,1,1.7,1.9
		c0,0.6-0.3,1.6-0.9,3.2c-1.3,3.4-3.7,8.9-4.5,10.7c-0.2,0.6-0.1,0.7,0.3,0.7c0.6,0,2.8-1.6,4.4-3.3c0.5-0.5,0.6,0.1,0.1,0.8
		c-2.1,3.2-6.2,6.2-8.2,6.2c-0.7,0-0.9-1.1-0.7-1.6c0.2-0.6,5.7-12.7,6.6-15.3c0.3-1,0.1-1.8-0.7-1.8c-1.3,0-3.3,1.2-6.5,5.4
		c-2.6,3.6-4.7,8-7.2,12.3c-0.2,0.4-0.9,0.6-1.8,0.6c-0.3,0-0.6-0.3-0.6-0.6c0-0.4,0.3-1.3,0.6-1.9c1.6-3.7,4.9-11.5,5.8-13.6
		c0.4-0.8,0.2-1.2-0.5-1.2c-0.8,0-2.1,0.6-3.1,2.2c-0.3,0.4-0.6,0.2-0.4-0.4c0.4-1.2,1.9-4.3,5.1-4.3
		C204.5,93.8,204.8,95.3,204.6,96z"/>
	<path class="st1" d="M231.5,94.8c0.3,0.3,0.5,0.7,0.5,1.3c0,0.8-1.1,1.4-1.4,1.4c-0.4,0-0.8-0.3-1.3-1c-0.7-1.1-1.2-1.6-1.9-1.6
		c-1.2,0-2.5,1.6-3.7,3.9c-1.5,2.6-2.8,7-2.8,10.5c0,1.7,0.8,2.7,1.7,2.7c1.4,0,3.3-1.2,5-3.3c0.4-0.5,0.5-0.6,0.7-0.6
		c0.3,0-0.1,0.9-0.4,1.4c-1.2,2.3-3.9,4.5-6.5,4.5c-1.6,0-3.7-1.5-3.7-5.4c0-0.9,0.3-3.6,1.6-6.6c1.2-2.7,3.3-5.7,6.5-7.3
		c1.3-0.7,2.3-0.9,3.3-0.9C229.9,93.8,230.9,94.1,231.5,94.8z"/>
	<path class="st1" d="M246.6,96.3c0,1.1-0.8,2.7-2.6,4c-2,1.6-5,2.6-7.3,2.7c-0.2,0-0.4,0.3-0.5,0.5c-0.5,1.3-1.1,3.8-1.1,5.5
		c0,0.9,0.2,2.6,2.2,2.6c1.5,0,3.2-1.2,4.5-2.9c0.2-0.3,0.4-0.4,0.4-0.1c0.1,0.1-0.1,0.6-0.4,1.4c-1.3,2.2-3.5,4-6.2,4
		c-1.7,0-3.5-2-3.5-5c0-3.6,1.9-7.8,3.5-10c2.2-3,5.4-5.2,7.9-5.2C245.8,93.7,246.6,95,246.6,96.3z M236.7,102.2
		c-0.1,0.2,0.1,0.2,0.3,0.2c3.1-0.5,7.4-4.3,7.4-6.4c0-0.9-0.4-1.5-1.1-1.5C241.1,94.4,238.3,97.7,236.7,102.2z"/>
	<path class="st1" d="M266.4,93.9c1.2,0,0.8,0.6,0,0.7c-1.7,0.2-2.1,0.5-3,2.9c-0.7,2-3.7,10.9-4,12.3c-0.6,2.1-0.5,2.6,1.5,2.9
		c1.3,0.3,0.7,0.7-0.1,0.7c-0.8,0-2.7-0.1-3.4-0.1c-1.7,0-3.1,0.2-4.5,0.2c-1.2,0-1.1-0.5,0-0.7c2-0.3,2.2-0.4,3.2-2.9
		c0.8-2.1,3.4-9.4,4.1-11.6c0.8-2.8,0.7-3.1-1.1-3.3c-1.5-0.2-1.1-0.8,0.1-0.8C262.9,94.1,264.4,93.9,266.4,93.9z"/>
	<path class="st1" d="M281.6,99.1c0,4.1-2.1,9.6-5.9,14.1c-3,3.6-6.8,6.6-10.3,8.3c-1.8,0.9-3.5,1.2-3.8,1.2c-0.3,0-0.5-0.1-0.5-0.2
		c0-0.1,0.4-0.3,0.6-0.4c4.5-2.4,8.7-6.4,12-10.7c0.2-0.2,0.2-0.3-0.1-0.3c-0.8,0.2-2.3,0.5-2.7,0.5c-2.4,0-3.8-2.2-3.8-4.9
		c0-3.9,2.5-8.4,4.7-10.6c1.7-1.7,3.7-2.6,5.4-2.6C280.5,93.5,281.6,96.8,281.6,99.1z M272.7,99c-1.5,2.6-2.5,6.2-2.5,8.3
		c0,2.5,1.2,3.5,2.3,3.5c1.1,0,1.9-0.4,2.5-1.3c1.1-1.8,3.8-7.5,3.8-11.9c0-1.3-0.2-3.4-1.7-3.4C275.9,94.2,274.5,95.5,272.7,99z"/>
	<path class="st1" d="M301.8,94.3c-1.3,3.9-3.1,8.7-5,14.9c0,0.1,0,0.4,0.2,0.4c2.1-0.2,4.8-0.4,5.6-0.5c0.2-0.1,0.2,0.2,0.2,0.3
		c0.1,0.5-0.7,1.2-1.3,1.3c-0.4,0.2-4.1,0.5-5.2,0.6c-0.4,0.1-0.4,0.2-0.5,0.4c-0.6,1.6-1.8,5.6-3.1,9.2c-0.1,0.3-0.9,0.8-1.3,0.9
		c-0.5,0.3-1.3,0.4-1.5,0.4c-0.3,0-0.4-0.4-0.4-0.6c0.4-1.4,1.8-5.5,3.2-9.6c0.1-0.2,0-0.3-0.2-0.3c-2.9,0.2-7.2,0.6-10.3,0.9
		c-0.5,0.1-0.6-0.1-0.6-0.2c0-0.2,0.1-0.4,0.4-0.7c1.3-1.4,2.8-2.6,4.2-4c4.4-4.3,9.9-9.5,14.4-13.7c0.4-0.3,0.7-0.6,1-0.6
		C301.9,93.5,301.9,93.8,301.8,94.3z M293.7,109.4c2-5.2,3.5-9.6,4-11.1c0.1-0.4-0.1-0.3-0.3-0.1c-2.7,2.3-9.4,9-12.3,12.1
		c-0.2,0.2-0.1,0.2,0.1,0.2c1.7-0.1,6.1-0.4,8-0.6C293.5,109.9,293.7,109.5,293.7,109.4z"/>
	<path class="st1" d="M313.6,95.5c-0.1,0.3-0.1,0.4,0.1,0.3c1-0.4,2.2-0.7,3.2-0.7c2.6,0,3.7,2.7,3.7,5.3
		c-0.2,5.2-3.8,10.6-7.3,12.5c-1,0.6-2.2,1.1-3.4,1.1c-2.7,0-4.2-2.8-4.2-5.8c0-5.1,3.2-11.3,7.2-15.6c3.1-3.2,8.5-7.3,12.7-8.4
		c0.3-0.1,1.1-0.3,1.1,0.1c0,0.2-0.5,0.4-1.1,0.7C320.2,87.3,315.1,93.4,313.6,95.5z M312.5,97.5c-1.9,2.9-3.9,7.7-3.9,12.6
		c0,1.7,0.5,3.2,1.8,3.2c1.1,0,2-0.8,3.2-2.2c1.8-2.3,4-7.7,4-11.3c0-1.3,0-3.6-2.5-3.6C314,96.2,312.9,97,312.5,97.5z"/>
</g>
</svg>
